G04 ================== begin FILE IDENTIFICATION RECORD ==================*
G04 Layout Name:  F:/计量采集模块部分/Ven1.0/Pcb/DataCollection.brd*
G04 Film Name:    DRILL*
G04 File Format:  Gerber RS274X*
G04 File Origin:  Cadence Allegro 16.6-2015-S066*
G04 Origin Date:  Tue Apr 11 15:49:38 2017*
G04 *
G04 Layer:  BOARD GEOMETRY/OUTLINE*
G04 Layer:  MANUFACTURING/NCDRILL_FIGURE*
G04 Layer:  MANUFACTURING/NCDRILL_LEGEND*
G04 Layer:  MANUFACTURING/NCLEGEND-1-2*
G04 *
G04 Offset:    (0.000 0.000)*
G04 Mirror:    No*
G04 Mode:      Positive*
G04 Rotation:  0*
G04 FullContactRelief:  No*
G04 UndefLineWidth:     1.000*
G04 ================== end FILE IDENTIFICATION RECORD ====================*
%FSLAX25Y25*MOIN*%
%IR0*IPPOS*OFA0.00000B0.00000*MIA0B0*SFA1.00000B1.00000*%
%AMMACRO10*
1,1,.001,.061024,0.0*
20,1,.001,.061024,0.0,.030512,.052848,0.0*
1,1,.001,.030512,.052848*
20,1,.001,.030512,.052848,-.030512,.052848,0.0*
1,1,.001,-.030512,.052848*
20,1,.001,-.030512,.052848,-.061024,0.0,0.0*
1,1,.001,-.061024,0.0*
20,1,.001,-.061024,0.0,-.030512,-.052848,0.0*
1,1,.001,-.030512,-.052848*
20,1,.001,-.030512,-.052848,.030512,-.052848,0.0*
1,1,.001,.030512,-.052848*
20,1,.001,.030512,-.052848,.061024,0.0,0.0*
1,1,.001,.061024,0.0*
1,1,.001,-.025427,-.030511*
20,1,.001,-.025427,-.030511,0.0,.030512,0.0*
1,1,.001,0.0,.030512*
20,1,.001,0.0,.030512,.025428,-.030511,0.0*
1,1,.001,.025428,-.030511*
1,1,.001,.016273,-.009154*
20,1,.001,.016273,-.009154,-.016273,-.009154,0.0*
1,1,.001,-.016273,-.009154*
%
%ADD10MACRO10*%
%AMMACRO16*
1,1,.001,.017717,0.0*
20,1,.001,.017717,0.0,.008858,.015343,0.0*
1,1,.001,.008858,.015343*
20,1,.001,.008858,.015343,-.008858,.015343,0.0*
1,1,.001,-.008858,.015343*
20,1,.001,-.008858,.015343,-.017717,0.0,0.0*
1,1,.001,-.017717,0.0*
20,1,.001,-.017717,0.0,-.008858,-.015343,0.0*
1,1,.001,-.008858,-.015343*
20,1,.001,-.008858,-.015343,.008858,-.015343,0.0*
1,1,.001,.008858,-.015343*
20,1,.001,.008858,-.015343,.017717,0.0,0.0*
1,1,.001,.017717,0.0*
1,1,.001,-.007382,-.008858*
20,1,.001,-.007382,-.008858,0.0,.008858,0.0*
1,1,.001,0.0,.008858*
20,1,.001,0.0,.008858,.007382,-.008858,0.0*
1,1,.001,.007382,-.008858*
1,1,.001,.004724,-.002658*
20,1,.001,.004724,-.002658,-.004725,-.002658,0.0*
1,1,.001,-.004725,-.002658*
%
%ADD16MACRO16*%
%AMMACRO14*
1,1,.001,.023622,0.0*
20,1,.001,.023622,0.0,.011811,.020457,0.0*
1,1,.001,.011811,.020457*
20,1,.001,.011811,.020457,-.011811,.020457,0.0*
1,1,.001,-.011811,.020457*
20,1,.001,-.011811,.020457,-.023622,0.0,0.0*
1,1,.001,-.023622,0.0*
20,1,.001,-.023622,0.0,-.011811,-.020457,0.0*
1,1,.001,-.011811,-.020457*
20,1,.001,-.011811,-.020457,.011811,-.020457,0.0*
1,1,.001,.011811,-.020457*
20,1,.001,.011811,-.020457,.023622,0.0,0.0*
1,1,.001,.023622,0.0*
1,1,.001,-.009843,-.011811*
20,1,.001,-.009843,-.011811,0.0,.011811,0.0*
1,1,.001,0.0,.011811*
20,1,.001,0.0,.011811,.009843,-.011811,0.0*
1,1,.001,.009843,-.011811*
1,1,.001,.006299,-.003544*
20,1,.001,.006299,-.003544,-.0063,-.003544,0.0*
1,1,.001,-.0063,-.003544*
%
%ADD14MACRO14*%
%AMMACRO15*
1,1,.001,.019685,0.0*
20,1,.001,.019685,0.0,.009843,.017048,0.0*
1,1,.001,.009843,.017048*
20,1,.001,.009843,.017048,-.009842,.017048,0.0*
1,1,.001,-.009842,.017048*
20,1,.001,-.009842,.017048,-.019685,0.0,0.0*
1,1,.001,-.019685,0.0*
20,1,.001,-.019685,0.0,-.009843,-.017048,0.0*
1,1,.001,-.009843,-.017048*
20,1,.001,-.009843,-.017048,.009842,-.017048,0.0*
1,1,.001,.009842,-.017048*
20,1,.001,.009842,-.017048,.019685,0.0,0.0*
1,1,.001,.019685,0.0*
1,1,.001,-.008202,-.009842*
20,1,.001,-.008202,-.009842,0.0,.009843,0.0*
1,1,.001,0.0,.009843*
20,1,.001,0.0,.009843,.008203,-.009842,0.0*
1,1,.001,.008203,-.009842*
1,1,.001,.00525,-.002953*
20,1,.001,.00525,-.002953,-.005249,-.002953,0.0*
1,1,.001,-.005249,-.002953*
%
%ADD15MACRO15*%
%AMMACRO13*
1,1,.001,.029528,0.0*
20,1,.001,.029528,0.0,.014764,.025572,0.0*
1,1,.001,.014764,.025572*
20,1,.001,.014764,.025572,-.014764,.025572,0.0*
1,1,.001,-.014764,.025572*
20,1,.001,-.014764,.025572,-.029528,0.0,0.0*
1,1,.001,-.029528,0.0*
20,1,.001,-.029528,0.0,-.014764,-.025572,0.0*
1,1,.001,-.014764,-.025572*
20,1,.001,-.014764,-.025572,.014764,-.025572,0.0*
1,1,.001,.014764,-.025572*
20,1,.001,.014764,-.025572,.029528,0.0,0.0*
1,1,.001,.029528,0.0*
1,1,.001,-.012303,-.014763*
20,1,.001,-.012303,-.014763,0.0,.014764,0.0*
1,1,.001,0.0,.014764*
20,1,.001,0.0,.014764,.012304,-.014763,0.0*
1,1,.001,.012304,-.014763*
1,1,.001,.007874,-.004429*
20,1,.001,.007874,-.004429,-.007874,-.004429,0.0*
1,1,.001,-.007874,-.004429*
%
%ADD13MACRO13*%
%AMMACRO11*
1,1,.001,0.0,.062992*
20,1,.001,0.0,.062992,.010938,.062035,0.0*
1,1,.001,.010938,.062035*
20,1,.001,.010938,.062035,.021545,.059193,0.0*
1,1,.001,.021545,.059193*
20,1,.001,.021545,.059193,.031496,.054553,0.0*
1,1,.001,.031496,.054553*
20,1,.001,.031496,.054553,.04049,.048255,0.0*
1,1,.001,.04049,.048255*
20,1,.001,.04049,.048255,.048255,.04049,0.0*
1,1,.001,.048255,.04049*
20,1,.001,.048255,.04049,.054553,.031496,0.0*
1,1,.001,.054553,.031496*
20,1,.001,.054553,.031496,.059193,.021545,0.0*
1,1,.001,.059193,.021545*
20,1,.001,.059193,.021545,.062035,.010938,0.0*
1,1,.001,.062035,.010938*
20,1,.001,.062035,.010938,.062992,0.0,0.0*
1,1,.001,.062992,0.0*
20,1,.001,.062992,0.0,.062035,-.010938,0.0*
1,1,.001,.062035,-.010938*
20,1,.001,.062035,-.010938,.059193,-.021545,0.0*
1,1,.001,.059193,-.021545*
20,1,.001,.059193,-.021545,.054553,-.031496,0.0*
1,1,.001,.054553,-.031496*
20,1,.001,.054553,-.031496,.048255,-.04049,0.0*
1,1,.001,.048255,-.04049*
20,1,.001,.048255,-.04049,.04049,-.048255,0.0*
1,1,.001,.04049,-.048255*
20,1,.001,.04049,-.048255,.031496,-.054553,0.0*
1,1,.001,.031496,-.054553*
20,1,.001,.031496,-.054553,.021545,-.059193,0.0*
1,1,.001,.021545,-.059193*
20,1,.001,.021545,-.059193,.010938,-.062035,0.0*
1,1,.001,.010938,-.062035*
20,1,.001,.010938,-.062035,0.0,-.062992,0.0*
1,1,.001,0.0,-.062992*
20,1,.001,0.0,-.062992,-.010938,-.062035,0.0*
1,1,.001,-.010938,-.062035*
20,1,.001,-.010938,-.062035,-.021545,-.059193,0.0*
1,1,.001,-.021545,-.059193*
20,1,.001,-.021545,-.059193,-.031496,-.054553,0.0*
1,1,.001,-.031496,-.054553*
20,1,.001,-.031496,-.054553,-.04049,-.048255,0.0*
1,1,.001,-.04049,-.048255*
20,1,.001,-.04049,-.048255,-.048255,-.04049,0.0*
1,1,.001,-.048255,-.04049*
20,1,.001,-.048255,-.04049,-.054553,-.031496,0.0*
1,1,.001,-.054553,-.031496*
20,1,.001,-.054553,-.031496,-.059193,-.021545,0.0*
1,1,.001,-.059193,-.021545*
20,1,.001,-.059193,-.021545,-.062035,-.010938,0.0*
1,1,.001,-.062035,-.010938*
20,1,.001,-.062035,-.010938,-.062992,0.0,0.0*
1,1,.001,-.062992,0.0*
20,1,.001,-.062992,0.0,-.062035,.010938,0.0*
1,1,.001,-.062035,.010938*
20,1,.001,-.062035,.010938,-.059193,.021545,0.0*
1,1,.001,-.059193,.021545*
20,1,.001,-.059193,.021545,-.054553,.031496,0.0*
1,1,.001,-.054553,.031496*
20,1,.001,-.054553,.031496,-.048255,.04049,0.0*
1,1,.001,-.048255,.04049*
20,1,.001,-.048255,.04049,-.04049,.048255,0.0*
1,1,.001,-.04049,.048255*
20,1,.001,-.04049,.048255,-.031496,.054553,0.0*
1,1,.001,-.031496,.054553*
20,1,.001,-.031496,.054553,-.021545,.059193,0.0*
1,1,.001,-.021545,.059193*
20,1,.001,-.021545,.059193,-.010938,.062035,0.0*
1,1,.001,-.010938,.062035*
20,1,.001,-.010938,.062035,0.0,.062992,0.0*
1,1,.001,0.0,.062992*
1,1,.001,-.026248,-.031496*
20,1,.001,-.026248,-.031496,-.000001,.031496,0.0*
1,1,.001,-.000001,.031496*
20,1,.001,-.000001,.031496,.026248,-.031496,0.0*
1,1,.001,.026248,-.031496*
1,1,.001,.016797,-.00945*
20,1,.001,.016797,-.00945,-.016799,-.00945,0.0*
1,1,.001,-.016799,-.00945*
%
%ADD11MACRO11*%
%AMMACRO12*
1,1,.001,.031496,0.0*
20,1,.001,.031496,0.0,.015748,.027276,0.0*
1,1,.001,.015748,.027276*
20,1,.001,.015748,.027276,-.015748,.027276,0.0*
1,1,.001,-.015748,.027276*
20,1,.001,-.015748,.027276,-.031496,0.0,0.0*
1,1,.001,-.031496,0.0*
20,1,.001,-.031496,0.0,-.015748,-.027276,0.0*
1,1,.001,-.015748,-.027276*
20,1,.001,-.015748,-.027276,.015748,-.027276,0.0*
1,1,.001,.015748,-.027276*
20,1,.001,.015748,-.027276,.031496,0.0,0.0*
1,1,.001,.031496,0.0*
1,1,.001,-.013124,-.015748*
20,1,.001,-.013124,-.015748,0.0,.015748,0.0*
1,1,.001,0.0,.015748*
20,1,.001,0.0,.015748,.013124,-.015748,0.0*
1,1,.001,.013124,-.015748*
1,1,.001,.008399,-.004725*
20,1,.001,.008399,-.004725,-.0084,-.004725,0.0*
1,1,.001,-.0084,-.004725*
%
%ADD12MACRO12*%
%AMMACRO17*
1,1,.001,.006,0.0*
20,1,.001,.006,0.0,.003,.005196,0.0*
1,1,.001,.003,.005196*
20,1,.001,.003,.005196,-.003,.005196,0.0*
1,1,.001,-.003,.005196*
20,1,.001,-.003,.005196,-.006,0.0,0.0*
1,1,.001,-.006,0.0*
20,1,.001,-.006,0.0,-.003,-.005196,0.0*
1,1,.001,-.003,-.005196*
20,1,.001,-.003,-.005196,.003,-.005196,0.0*
1,1,.001,.003,-.005196*
20,1,.001,.003,-.005196,.006,0.0,0.0*
1,1,.001,.006,0.0*
1,1,.001,-.0025,-.003*
20,1,.001,-.0025,-.003,0.0,.003,0.0*
1,1,.001,0.0,.003*
20,1,.001,0.0,.003,.0025,-.003,0.0*
1,1,.001,.0025,-.003*
1,1,.001,.0016,-.0009*
20,1,.001,.0016,-.0009,-.0016,-.0009,0.0*
1,1,.001,-.0016,-.0009*
%
%ADD17MACRO17*%
%ADD18C,.001*%
G75*
%LPD*%
G75*
G54D10*
X12411Y61024D03*
Y156300D03*
X2526Y412328D03*
G54D11*
X19685Y295276D03*
X2526Y387328D03*
X374016Y54685D03*
G54D12*
X2526Y362328D03*
X201584Y59450D03*
Y157875D03*
G54D13*
X2526Y437328D03*
X16687Y185118D03*
Y205118D03*
X16188Y250572D03*
Y270572D03*
G54D14*
X2526Y462328D03*
X194751Y217376D03*
Y297376D03*
X374751Y257376D03*
Y297376D03*
G54D15*
X2526Y487328D03*
X60957Y233432D03*
Y263432D03*
Y293432D03*
X171193Y233432D03*
Y263432D03*
G54D16*
X2526Y512328D03*
X277781Y183181D03*
X297781D03*
X287781D03*
X317781D03*
X307781D03*
X346256Y42991D03*
X336256D03*
X346256Y52991D03*
X336256D03*
X327781Y183181D03*
G54D17*
X2526Y537328D03*
X58438Y184298D03*
X93933Y171931D03*
X99495Y135029D03*
X99423Y160365D03*
X105791Y187716D03*
X106854Y192594D03*
X106722Y202782D03*
X118840Y166820D03*
X127684Y204252D03*
X172362Y67150D03*
X171235Y85387D03*
X177380Y82678D03*
X178033Y114174D03*
X177212Y136221D03*
X177704Y126772D03*
X179862Y76379D03*
X179706Y101576D03*
X192354Y136494D03*
X197245Y120413D03*
X198793Y129066D03*
X215364Y44757D03*
X209348Y108123D03*
X208005Y131497D03*
X206522Y128347D03*
X208191Y145608D03*
X215364Y172567D03*
X225273Y74804D03*
X225016Y84253D03*
X223675Y106300D03*
X225058Y115749D03*
X236794Y101231D03*
X224533Y118898D03*
X231554Y156013D03*
X233789Y150293D03*
X242805Y77969D03*
X246744Y153390D03*
X260298Y139307D03*
X258225Y150994D03*
X257926Y156013D03*
X259671Y153635D03*
X260592Y143168D03*
X255388Y208887D03*
X263404Y42160D03*
X273792Y113464D03*
X275194Y118325D03*
X277166Y157008D03*
X268932Y140659D03*
X276468Y148176D03*
X274258Y145594D03*
X276791Y194951D03*
X274518Y199577D03*
X270076Y210308D03*
X282338Y39876D03*
X297018Y48873D03*
X285641Y95785D03*
X285278Y107995D03*
X290100Y104899D03*
X286670Y105566D03*
X283242Y109918D03*
X299958Y100930D03*
X291359Y125574D03*
X290364Y174224D03*
X287767Y164356D03*
X295371Y167903D03*
X288169Y200263D03*
X310003Y63612D03*
X317383Y68561D03*
X307583Y109691D03*
X322980Y102686D03*
X319607Y102420D03*
X313286Y130115D03*
X306407Y128311D03*
X321940Y118168D03*
X320970Y129458D03*
X319360Y168042D03*
X310934Y164278D03*
X341403Y60809D03*
X330024Y63622D03*
X342236Y68149D03*
X330854Y86078D03*
X327614Y82771D03*
X333269Y115297D03*
X329515Y108770D03*
X334604Y123605D03*
X329203Y152337D03*
X336022Y145216D03*
X337443Y163592D03*
X327183Y234181D03*
Y252370D03*
X351869Y72118D03*
X361708Y91993D03*
X363600Y88592D03*
X362296Y115297D03*
X359317Y95756D03*
X356691Y104752D03*
X364864Y132084D03*
X344759Y125574D03*
X365304Y123833D03*
X350654Y142169D03*
X375889Y115023D03*
Y106212D03*
X375889Y97402D03*
X375889Y132643D03*
Y150263D03*
Y141453D03*
X370793Y207564D03*
X387071Y208456D03*
G54D18*
G01X-42424Y349828D02*
Y649828D01*
X441176D01*
Y349828D01*
X-42424D01*
G01Y374828D02*
X441176D01*
G01X-42424Y399828D02*
X441176D01*
G01X-42424Y424828D02*
X441176D01*
G01X-42424Y449828D02*
X441176D01*
G01X-42424Y474828D02*
X441176D01*
G01X-42424Y499828D02*
X441176D01*
G01X-42424Y524828D02*
X441176D01*
G01X-42424Y549828D02*
X441176D01*
G01X-31419Y581078D02*
Y593578D01*
X-25529D01*
G01X-27699Y587537D02*
X-31419D01*
G01X-17934Y593578D02*
X-14215D01*
G01X-16074D02*
Y581078D01*
G01X-17934D02*
X-14215D01*
G01X-2744Y587328D02*
X356D01*
Y583578D01*
X-574Y582328D01*
X-1659Y581495D01*
X-3209Y581078D01*
X-4759Y581495D01*
X-5844Y582328D01*
X-6774Y583578D01*
X-7394Y585036D01*
X-7704Y586703D01*
Y588162D01*
X-7394Y589411D01*
X-6774Y590870D01*
X-5844Y592120D01*
X-4914Y592953D01*
X-3674Y593578D01*
X-2589D01*
X-1349Y593162D01*
X-419Y592328D01*
G01X5316Y593578D02*
Y584620D01*
X5936Y582744D01*
X7176Y581495D01*
X8726Y581078D01*
X10276Y581495D01*
X11516Y582744D01*
X12136Y584620D01*
Y593578D01*
G01X18026Y581078D02*
Y593578D01*
X21901D01*
X23141Y592953D01*
X23916Y592120D01*
X24226Y590453D01*
X23916Y588786D01*
X22986Y587745D01*
X21901Y587120D01*
X18026D01*
G01X21901D02*
X24226Y581078D01*
G01X36626D02*
X30426D01*
Y593578D01*
X36626D01*
G01X34146Y587537D02*
X30426D01*
G01X-42424Y574828D02*
X441176D01*
G01X-42424Y599828D02*
X441176D01*
G01X-42424Y624828D02*
X441176D01*
G01X19685Y35000D02*
X374015D01*
G03X393700Y54685I0J19685D01*
G01Y295315D01*
G03X374015Y315000I-19685J0D01*
G01X19685D01*
G03X0Y295315I0J-19685D01*
G01Y54685D01*
G03X19685Y35000I19685J0D01*
G01X47476Y599828D02*
Y349828D01*
G01X40966Y631078D02*
Y643578D01*
X44066D01*
X45306Y642953D01*
X46236Y642120D01*
X47011Y640870D01*
X47631Y639411D01*
X47786Y637328D01*
X47631Y635245D01*
X47011Y633786D01*
X46236Y632536D01*
X45306Y631703D01*
X44066Y631078D01*
X40966D01*
G01X53676D02*
Y643578D01*
X57551D01*
X58791Y642953D01*
X59566Y642120D01*
X59876Y640453D01*
X59566Y638786D01*
X58636Y637745D01*
X57551Y637120D01*
X53676D01*
G01X57551D02*
X59876Y631078D01*
G01X67316Y643578D02*
X71036D01*
G01X69176D02*
Y631078D01*
G01X67316D02*
X71036D01*
G01X78476Y643578D02*
Y631078D01*
X84676D01*
G01X90876Y643578D02*
Y631078D01*
X97076D01*
G01X122186Y642536D02*
X121256Y643162D01*
X120171Y643578D01*
X118931D01*
X117536Y642953D01*
X116451Y641912D01*
X115676Y640661D01*
X115056Y638578D01*
X114901Y636703D01*
X115211Y634828D01*
X115676Y633578D01*
X116606Y632328D01*
X117691Y631495D01*
X118776Y631078D01*
X119861D01*
X120946Y631495D01*
X121876Y632120D01*
X122651Y632953D01*
G01X127921Y631078D02*
Y643578D01*
G01X134431D02*
Y631078D01*
G01Y637328D02*
X127921D01*
G01X139701Y631078D02*
X143576Y643578D01*
X147451Y631078D01*
G01X146056Y635453D02*
X141096D01*
G01X152876Y631078D02*
Y643578D01*
X156751D01*
X157991Y642953D01*
X158766Y642120D01*
X159076Y640453D01*
X158766Y638786D01*
X157836Y637745D01*
X156751Y637120D01*
X152876D01*
G01X156751D02*
X159076Y631078D01*
G01X168376Y643578D02*
Y631078D01*
G01X164811Y643578D02*
X171941D01*
G01X180776Y630662D02*
X180466Y630870D01*
Y631286D01*
X180776Y631495D01*
X181086Y631286D01*
Y630870D01*
X180776Y630662D01*
G01Y636286D02*
X180466Y636495D01*
Y636911D01*
X180776Y637120D01*
X181086Y636911D01*
Y636495D01*
X180776Y636286D01*
G01X205576Y643578D02*
Y631078D01*
G01X202011Y643578D02*
X209141D01*
G01X217976Y631078D02*
X216736Y631286D01*
X215651Y632120D01*
X214721Y633370D01*
X214101Y634828D01*
X213791Y636495D01*
Y638162D01*
X214101Y639828D01*
X214721Y641287D01*
X215651Y642536D01*
X216736Y643370D01*
X217976Y643578D01*
X219216Y643370D01*
X220301Y642536D01*
X221231Y641287D01*
X221851Y639828D01*
X222161Y638162D01*
Y636495D01*
X221851Y634828D01*
X221231Y633370D01*
X220301Y632120D01*
X219216Y631286D01*
X217976Y631078D01*
G01X227276D02*
Y643578D01*
X230996D01*
X232236Y642953D01*
X233166Y641495D01*
X233476Y639828D01*
X233166Y638162D01*
X232391Y636911D01*
X230996Y636286D01*
X227276D01*
G01X255176Y643578D02*
Y631078D01*
G01X253006Y639411D02*
X257346D01*
G01X267576Y631078D02*
X266646Y631286D01*
X265716Y632120D01*
X265096Y633578D01*
X264786Y635245D01*
X265096Y636911D01*
X265716Y638370D01*
X266646Y639203D01*
X267576Y639411D01*
X268506Y639203D01*
X269436Y638370D01*
X270056Y636911D01*
X270211Y635245D01*
X270056Y633578D01*
X269436Y632120D01*
X268506Y631286D01*
X267576Y631078D01*
G01X293616Y637745D02*
X294236Y638370D01*
X294701Y639411D01*
X295011Y640870D01*
X294701Y642120D01*
X294081Y642953D01*
X292996Y643578D01*
X288811D01*
Y631078D01*
X293926D01*
X295011Y631911D01*
X295631Y633162D01*
X295941Y634620D01*
X295631Y636078D01*
X294701Y637328D01*
X293616Y637745D01*
X288811D01*
G01X304776Y631078D02*
X303536Y631286D01*
X302451Y632120D01*
X301521Y633370D01*
X300901Y634828D01*
X300591Y636495D01*
Y638162D01*
X300901Y639828D01*
X301521Y641287D01*
X302451Y642536D01*
X303536Y643370D01*
X304776Y643578D01*
X306016Y643370D01*
X307101Y642536D01*
X308031Y641287D01*
X308651Y639828D01*
X308961Y638162D01*
Y636495D01*
X308651Y634828D01*
X308031Y633370D01*
X307101Y632120D01*
X306016Y631286D01*
X304776Y631078D01*
G01X317176Y643578D02*
Y631078D01*
G01X313611Y643578D02*
X320741D01*
G01X329576D02*
Y631078D01*
G01X326011Y643578D02*
X333141D01*
G01X341976Y631078D02*
X340736Y631286D01*
X339651Y632120D01*
X338721Y633370D01*
X338101Y634828D01*
X337791Y636495D01*
Y638162D01*
X338101Y639828D01*
X338721Y641287D01*
X339651Y642536D01*
X340736Y643370D01*
X341976Y643578D01*
X343216Y643370D01*
X344301Y642536D01*
X345231Y641287D01*
X345851Y639828D01*
X346161Y638162D01*
Y636495D01*
X345851Y634828D01*
X345231Y633370D01*
X344301Y632120D01*
X343216Y631286D01*
X341976Y631078D01*
G01X350346D02*
Y643578D01*
X354376Y633162D01*
X358406Y643578D01*
Y631078D01*
G01X71501Y606078D02*
X75376Y618578D01*
X79251Y606078D01*
G01X77856Y610453D02*
X72896D01*
G01X84676Y618578D02*
Y606078D01*
X90876D01*
G01X97076Y618578D02*
Y606078D01*
X103276D01*
G01X121566Y618578D02*
Y609620D01*
X122186Y607744D01*
X123426Y606495D01*
X124976Y606078D01*
X126526Y606495D01*
X127766Y607744D01*
X128386Y609620D01*
Y618578D01*
G01X133811Y606078D02*
Y618578D01*
X140941Y606078D01*
Y618578D01*
G01X147916D02*
X151636D01*
G01X149776D02*
Y606078D01*
G01X147916D02*
X151636D01*
G01X162176Y618578D02*
Y606078D01*
G01X158611Y618578D02*
X165741D01*
G01X171321Y607744D02*
X172561Y606703D01*
X173956Y606078D01*
X175196D01*
X176436Y606703D01*
X177366Y607744D01*
X177831Y609203D01*
X177521Y610661D01*
X176746Y611911D01*
X175351Y612745D01*
X173491Y613162D01*
X172406Y613995D01*
X171941Y615453D01*
X172251Y616912D01*
X173026Y617953D01*
X174111Y618578D01*
X175196D01*
X176281Y618162D01*
X177211Y617120D01*
G01X195501Y606078D02*
X199376Y618578D01*
X203251Y606078D01*
G01X201856Y610453D02*
X196896D01*
G01X208676Y606078D02*
Y618578D01*
X212551D01*
X213791Y617953D01*
X214566Y617120D01*
X214876Y615453D01*
X214566Y613786D01*
X213636Y612745D01*
X212551Y612120D01*
X208676D01*
G01X212551D02*
X214876Y606078D01*
G01X227276D02*
X221076D01*
Y618578D01*
X227276D01*
G01X224796Y612537D02*
X221076D01*
G01X247116Y618578D02*
X250836D01*
G01X248976D02*
Y606078D01*
G01X247116D02*
X250836D01*
G01X257811D02*
Y618578D01*
X264941Y606078D01*
Y618578D01*
G01X282146Y606078D02*
Y618578D01*
X286176Y608162D01*
X290206Y618578D01*
Y606078D01*
G01X296716Y618578D02*
X300436D01*
G01X298576D02*
Y606078D01*
G01X296716D02*
X300436D01*
G01X307876Y618578D02*
Y606078D01*
X314076D01*
G01X320121Y607744D02*
X321361Y606703D01*
X322756Y606078D01*
X323996D01*
X325236Y606703D01*
X326166Y607744D01*
X326631Y609203D01*
X326321Y610661D01*
X325546Y611911D01*
X324151Y612745D01*
X322291Y613162D01*
X321206Y613995D01*
X320741Y615453D01*
X321051Y616912D01*
X321826Y617953D01*
X322911Y618578D01*
X323996D01*
X325081Y618162D01*
X326011Y617120D01*
G01X108081Y361286D02*
X109166Y362745D01*
X110096Y363578D01*
X111336Y363995D01*
X112421Y363578D01*
X113196Y362745D01*
X113816Y361495D01*
X113971Y360036D01*
X113816Y358786D01*
X113196Y357536D01*
X112266Y356495D01*
X111181Y356078D01*
X109941Y356495D01*
X108856Y357745D01*
X108236Y359620D01*
X108081Y361703D01*
X108391Y364411D01*
X108856Y365870D01*
X109631Y367328D01*
X110716Y368370D01*
X111801Y368578D01*
X112886Y368162D01*
X113661Y367120D01*
G01X120481Y366495D02*
X121411Y367745D01*
X122496Y368370D01*
X123736Y368578D01*
X125286Y368162D01*
X126371Y367120D01*
X126681Y365870D01*
X126526Y364620D01*
X125906Y363578D01*
X122806Y361495D01*
X121411Y360036D01*
X120481Y357953D01*
X120171Y356078D01*
X126681D01*
G01X135826Y355662D02*
X135516Y355870D01*
Y356286D01*
X135826Y356495D01*
X136136Y356286D01*
Y355870D01*
X135826Y355662D01*
G01X145591Y357536D02*
X146676Y356495D01*
X147916Y356078D01*
X149156Y356495D01*
X150241Y357745D01*
X151016Y359620D01*
X151326Y361495D01*
Y363786D01*
X151016Y365661D01*
X150241Y367328D01*
X149311Y368162D01*
X148226Y368578D01*
X146986Y368162D01*
X146056Y367328D01*
X145436Y366078D01*
X145126Y364411D01*
X145436Y362953D01*
X146211Y361495D01*
X147141Y360661D01*
X148226Y360453D01*
X149466Y360870D01*
X150396Y361911D01*
X151326Y363786D01*
G01X157991Y357536D02*
X159076Y356495D01*
X160316Y356078D01*
X161556Y356495D01*
X162641Y357745D01*
X163416Y359620D01*
X163726Y361495D01*
Y363786D01*
X163416Y365661D01*
X162641Y367328D01*
X161711Y368162D01*
X160626Y368578D01*
X159386Y368162D01*
X158456Y367328D01*
X157836Y366078D01*
X157526Y364411D01*
X157836Y362953D01*
X158611Y361495D01*
X159541Y360661D01*
X160626Y360453D01*
X161866Y360870D01*
X162796Y361911D01*
X163726Y363786D01*
G01X170081Y366495D02*
X171011Y367745D01*
X172096Y368370D01*
X173336Y368578D01*
X174886Y368162D01*
X175971Y367120D01*
X176281Y365870D01*
X176126Y364620D01*
X175506Y363578D01*
X172406Y361495D01*
X171011Y360036D01*
X170081Y357953D01*
X169771Y356078D01*
X176281D01*
G01X104826Y381078D02*
Y393578D01*
X102966Y391078D01*
G01Y381078D02*
X106686D01*
G01X114281Y391495D02*
X115211Y392745D01*
X116296Y393370D01*
X117536Y393578D01*
X119086Y393162D01*
X120171Y392120D01*
X120481Y390870D01*
X120326Y389620D01*
X119706Y388578D01*
X116606Y386495D01*
X115211Y385036D01*
X114281Y382953D01*
X113971Y381078D01*
X120481D01*
G01X126216Y382953D02*
X127146Y381911D01*
X128231Y381286D01*
X129626Y381078D01*
X131021Y381495D01*
X132106Y382328D01*
X132881Y383786D01*
X133036Y385453D01*
X132726Y387120D01*
X131951Y388162D01*
X130866Y388995D01*
X129781Y389203D01*
X128696Y388995D01*
X127301Y388162D01*
X127766Y393578D01*
X131951D01*
G01X142026Y380662D02*
X141716Y380870D01*
Y381286D01*
X142026Y381495D01*
X142336Y381286D01*
Y380870D01*
X142026Y380662D01*
G01X151791Y382536D02*
X152876Y381495D01*
X154116Y381078D01*
X155356Y381495D01*
X156441Y382745D01*
X157216Y384620D01*
X157526Y386495D01*
Y388786D01*
X157216Y390661D01*
X156441Y392328D01*
X155511Y393162D01*
X154426Y393578D01*
X153186Y393162D01*
X152256Y392328D01*
X151636Y391078D01*
X151326Y389411D01*
X151636Y387953D01*
X152411Y386495D01*
X153341Y385661D01*
X154426Y385453D01*
X155666Y385870D01*
X156596Y386911D01*
X157526Y388786D01*
G01X166826Y381078D02*
X167911Y381286D01*
X169151Y381911D01*
X169926Y382953D01*
X170236Y384412D01*
X169926Y385870D01*
X168996Y387120D01*
X167601Y387745D01*
X166051D01*
X165121Y388162D01*
X164346Y389203D01*
X164036Y390661D01*
X164501Y392120D01*
X165586Y393162D01*
X166826Y393578D01*
X168066Y393162D01*
X169151Y392120D01*
X169616Y390661D01*
X169306Y389203D01*
X168531Y388162D01*
X167601Y387745D01*
X166051D01*
X164656Y387120D01*
X163726Y385870D01*
X163416Y384412D01*
X163726Y382953D01*
X164501Y381911D01*
X165741Y381286D01*
X166826Y381078D01*
G01X181086D02*
Y393578D01*
X175351Y384620D01*
X183101D01*
G01X104826Y406078D02*
Y418578D01*
X102966Y416078D01*
G01Y406078D02*
X106686D01*
G01X114281Y416495D02*
X115211Y417745D01*
X116296Y418370D01*
X117536Y418578D01*
X119086Y418162D01*
X120171Y417120D01*
X120481Y415870D01*
X120326Y414620D01*
X119706Y413578D01*
X116606Y411495D01*
X115211Y410036D01*
X114281Y407953D01*
X113971Y406078D01*
X120481D01*
G01X126681Y416495D02*
X127611Y417745D01*
X128696Y418370D01*
X129936Y418578D01*
X131486Y418162D01*
X132571Y417120D01*
X132881Y415870D01*
X132726Y414620D01*
X132106Y413578D01*
X129006Y411495D01*
X127611Y410036D01*
X126681Y407953D01*
X126371Y406078D01*
X132881D01*
G01X142026Y405662D02*
X141716Y405870D01*
Y406286D01*
X142026Y406495D01*
X142336Y406286D01*
Y405870D01*
X142026Y405662D01*
G01X154426Y418578D02*
X153186Y418162D01*
X152256Y417120D01*
X151636Y415870D01*
X151171Y414203D01*
X151016Y412328D01*
X151171Y410453D01*
X151636Y408786D01*
X152256Y407536D01*
X153186Y406495D01*
X154426Y406078D01*
X155666Y406495D01*
X156596Y407536D01*
X157216Y408786D01*
X157681Y410453D01*
X157836Y412328D01*
X157681Y414203D01*
X157216Y415870D01*
X156596Y417120D01*
X155666Y418162D01*
X154426Y418578D01*
G01X168686Y406078D02*
Y418578D01*
X162951Y409620D01*
X170701D01*
G01X178916Y406078D02*
X179226Y408786D01*
X179691Y411078D01*
X180311Y413162D01*
X181086Y415453D01*
X182326Y418578D01*
X176126D01*
G01X107616Y432953D02*
X108546Y431911D01*
X109631Y431286D01*
X111026Y431078D01*
X112421Y431495D01*
X113506Y432328D01*
X114281Y433786D01*
X114436Y435453D01*
X114126Y437120D01*
X113351Y438162D01*
X112266Y438995D01*
X111181Y439203D01*
X110096Y438995D01*
X108701Y438162D01*
X109166Y443578D01*
X113351D01*
G01X120791Y432536D02*
X121876Y431495D01*
X123116Y431078D01*
X124356Y431495D01*
X125441Y432744D01*
X126216Y434620D01*
X126526Y436495D01*
Y438786D01*
X126216Y440661D01*
X125441Y442328D01*
X124511Y443162D01*
X123426Y443578D01*
X122186Y443162D01*
X121256Y442328D01*
X120636Y441078D01*
X120326Y439411D01*
X120636Y437953D01*
X121411Y436495D01*
X122341Y435661D01*
X123426Y435453D01*
X124666Y435870D01*
X125596Y436911D01*
X126526Y438786D01*
G01X135826Y430662D02*
X135516Y430870D01*
Y431286D01*
X135826Y431495D01*
X136136Y431286D01*
Y430870D01*
X135826Y430662D01*
G01X148226Y443578D02*
X146986Y443162D01*
X146056Y442120D01*
X145436Y440870D01*
X144971Y439203D01*
X144816Y437328D01*
X144971Y435453D01*
X145436Y433786D01*
X146056Y432536D01*
X146986Y431495D01*
X148226Y431078D01*
X149466Y431495D01*
X150396Y432536D01*
X151016Y433786D01*
X151481Y435453D01*
X151636Y437328D01*
X151481Y439203D01*
X151016Y440870D01*
X150396Y442120D01*
X149466Y443162D01*
X148226Y443578D01*
G01X157216Y432953D02*
X158146Y431911D01*
X159231Y431286D01*
X160626Y431078D01*
X162021Y431495D01*
X163106Y432328D01*
X163881Y433786D01*
X164036Y435453D01*
X163726Y437120D01*
X162951Y438162D01*
X161866Y438995D01*
X160781Y439203D01*
X159696Y438995D01*
X158301Y438162D01*
X158766Y443578D01*
X162951D01*
G01X169616Y432953D02*
X170546Y431911D01*
X171631Y431286D01*
X173026Y431078D01*
X174421Y431495D01*
X175506Y432328D01*
X176281Y433786D01*
X176436Y435453D01*
X176126Y437120D01*
X175351Y438162D01*
X174266Y438995D01*
X173181Y439203D01*
X172096Y438995D01*
X170701Y438162D01*
X171166Y443578D01*
X175351D01*
G01X112886Y456078D02*
Y468578D01*
X107151Y459620D01*
X114901D01*
G01X123116Y456078D02*
X123426Y458786D01*
X123891Y461078D01*
X124511Y463162D01*
X125286Y465453D01*
X126526Y468578D01*
X120326D01*
G01X135826Y455662D02*
X135516Y455870D01*
Y456286D01*
X135826Y456495D01*
X136136Y456286D01*
Y455870D01*
X135826Y455662D01*
G01X145281Y466495D02*
X146211Y467745D01*
X147296Y468370D01*
X148536Y468578D01*
X150086Y468162D01*
X151171Y467120D01*
X151481Y465870D01*
X151326Y464620D01*
X150706Y463578D01*
X147606Y461495D01*
X146211Y460036D01*
X145281Y457953D01*
X144971Y456078D01*
X151481D01*
G01X162486D02*
Y468578D01*
X156751Y459620D01*
X164501D01*
G01X174886Y456078D02*
Y468578D01*
X169151Y459620D01*
X176901D01*
G01X113816Y483578D02*
X114746Y482120D01*
X115986Y481286D01*
X117381Y481078D01*
X118621Y481286D01*
X119861Y482328D01*
X120636Y483578D01*
X120791Y484828D01*
X120481Y486286D01*
X119396Y487328D01*
X118311Y487745D01*
X116916D01*
G01X118311D02*
X119241Y488370D01*
X120016Y489411D01*
X120326Y490661D01*
X120016Y491911D01*
X119241Y492953D01*
X117846Y493578D01*
X116451Y493370D01*
X115056Y492536D01*
G01X126991Y482536D02*
X128076Y481495D01*
X129316Y481078D01*
X130556Y481495D01*
X131641Y482744D01*
X132416Y484620D01*
X132726Y486495D01*
Y488786D01*
X132416Y490661D01*
X131641Y492328D01*
X130711Y493162D01*
X129626Y493578D01*
X128386Y493162D01*
X127456Y492328D01*
X126836Y491078D01*
X126526Y489411D01*
X126836Y487953D01*
X127611Y486495D01*
X128541Y485661D01*
X129626Y485453D01*
X130866Y485870D01*
X131796Y486911D01*
X132726Y488786D01*
G01X142026Y480662D02*
X141716Y480870D01*
Y481286D01*
X142026Y481495D01*
X142336Y481286D01*
Y480870D01*
X142026Y480662D01*
G01X151016Y483578D02*
X151946Y482120D01*
X153186Y481286D01*
X154581Y481078D01*
X155821Y481286D01*
X157061Y482328D01*
X157836Y483578D01*
X157991Y484828D01*
X157681Y486286D01*
X156596Y487328D01*
X155511Y487745D01*
X154116D01*
G01X155511D02*
X156441Y488370D01*
X157216Y489411D01*
X157526Y490661D01*
X157216Y491911D01*
X156441Y492953D01*
X155046Y493578D01*
X153651Y493370D01*
X152256Y492536D01*
G01X166516Y481078D02*
X166826Y483786D01*
X167291Y486078D01*
X167911Y488162D01*
X168686Y490453D01*
X169926Y493578D01*
X163726D01*
G01X107616Y508578D02*
X108546Y507120D01*
X109786Y506286D01*
X111181Y506078D01*
X112421Y506286D01*
X113661Y507328D01*
X114436Y508578D01*
X114591Y509828D01*
X114281Y511286D01*
X113196Y512328D01*
X112111Y512745D01*
X110716D01*
G01X112111D02*
X113041Y513370D01*
X113816Y514411D01*
X114126Y515661D01*
X113816Y516911D01*
X113041Y517953D01*
X111646Y518578D01*
X110251Y518370D01*
X108856Y517536D01*
G01X120016Y507953D02*
X120946Y506911D01*
X122031Y506286D01*
X123426Y506078D01*
X124821Y506495D01*
X125906Y507328D01*
X126681Y508786D01*
X126836Y510453D01*
X126526Y512120D01*
X125751Y513162D01*
X124666Y513995D01*
X123581Y514203D01*
X122496Y513995D01*
X121101Y513162D01*
X121566Y518578D01*
X125751D01*
G01X135826Y505662D02*
X135516Y505870D01*
Y506286D01*
X135826Y506495D01*
X136136Y506286D01*
Y505870D01*
X135826Y505662D01*
G01X150086Y506078D02*
Y518578D01*
X144351Y509620D01*
X152101D01*
G01X157216Y508578D02*
X158146Y507120D01*
X159386Y506286D01*
X160781Y506078D01*
X162021Y506286D01*
X163261Y507328D01*
X164036Y508578D01*
X164191Y509828D01*
X163881Y511286D01*
X162796Y512328D01*
X161711Y512745D01*
X160316D01*
G01X161711D02*
X162641Y513370D01*
X163416Y514411D01*
X163726Y515661D01*
X163416Y516911D01*
X162641Y517953D01*
X161246Y518578D01*
X159851Y518370D01*
X158456Y517536D01*
G01X169616Y508578D02*
X170546Y507120D01*
X171786Y506286D01*
X173181Y506078D01*
X174421Y506286D01*
X175661Y507328D01*
X176436Y508578D01*
X176591Y509828D01*
X176281Y511286D01*
X175196Y512328D01*
X174111Y512745D01*
X172716D01*
G01X174111D02*
X175041Y513370D01*
X175816Y514411D01*
X176126Y515661D01*
X175816Y516911D01*
X175041Y517953D01*
X173646Y518578D01*
X172251Y518370D01*
X170856Y517536D01*
G01X123426Y531078D02*
Y543578D01*
X121566Y541078D01*
G01Y531078D02*
X125286D01*
G01X132881Y541495D02*
X133811Y542745D01*
X134896Y543370D01*
X136136Y543578D01*
X137686Y543162D01*
X138771Y542120D01*
X139081Y540870D01*
X138926Y539620D01*
X138306Y538578D01*
X135206Y536495D01*
X133811Y535036D01*
X132881Y532953D01*
X132571Y531078D01*
X139081D01*
G01X148226Y530662D02*
X147916Y530870D01*
Y531286D01*
X148226Y531495D01*
X148536Y531286D01*
Y530870D01*
X148226Y530662D01*
G01X160626Y543578D02*
X159386Y543162D01*
X158456Y542120D01*
X157836Y540870D01*
X157371Y539203D01*
X157216Y537328D01*
X157371Y535453D01*
X157836Y533786D01*
X158456Y532536D01*
X159386Y531495D01*
X160626Y531078D01*
X161866Y531495D01*
X162796Y532536D01*
X163416Y533786D01*
X163881Y535453D01*
X164036Y537328D01*
X163881Y539203D01*
X163416Y540870D01*
X162796Y542120D01*
X161866Y543162D01*
X160626Y543578D01*
G01X123426Y556078D02*
Y568578D01*
X121566Y566078D01*
G01Y556078D02*
X125286D01*
G01X132881Y566495D02*
X133811Y567745D01*
X134896Y568370D01*
X136136Y568578D01*
X137686Y568162D01*
X138771Y567120D01*
X139081Y565870D01*
X138926Y564620D01*
X138306Y563578D01*
X135206Y561495D01*
X133811Y560036D01*
X132881Y557953D01*
X132571Y556078D01*
X139081D01*
G01X148226Y555662D02*
X147916Y555870D01*
Y556286D01*
X148226Y556495D01*
X148536Y556286D01*
Y555870D01*
X148226Y555662D01*
G01X160626Y568578D02*
X159386Y568162D01*
X158456Y567120D01*
X157836Y565870D01*
X157371Y564203D01*
X157216Y562328D01*
X157371Y560453D01*
X157836Y558786D01*
X158456Y557536D01*
X159386Y556495D01*
X160626Y556078D01*
X161866Y556495D01*
X162796Y557536D01*
X163416Y558786D01*
X163881Y560453D01*
X164036Y562328D01*
X163881Y564203D01*
X163416Y565870D01*
X162796Y567120D01*
X161866Y568162D01*
X160626Y568578D01*
G01X120171Y582744D02*
X121411Y581703D01*
X122806Y581078D01*
X124046D01*
X125286Y581703D01*
X126216Y582744D01*
X126681Y584203D01*
X126371Y585661D01*
X125596Y586911D01*
X124201Y587745D01*
X122341Y588162D01*
X121256Y588995D01*
X120791Y590453D01*
X121101Y591912D01*
X121876Y592953D01*
X122961Y593578D01*
X124046D01*
X125131Y593162D01*
X126061Y592120D01*
G01X133966Y593578D02*
X137686D01*
G01X135826D02*
Y581078D01*
G01X133966D02*
X137686D01*
G01X145281Y593578D02*
X151171D01*
X145281Y581078D01*
X151171D01*
G01X163726D02*
X157526D01*
Y593578D01*
X163726D01*
G01X161246Y587537D02*
X157526D01*
G01X236576Y599828D02*
Y349828D01*
G01X240761Y356078D02*
Y368578D01*
X247891Y356078D01*
Y368578D01*
G01X256726Y356078D02*
X255486Y356286D01*
X254401Y357120D01*
X253471Y358370D01*
X252851Y359828D01*
X252541Y361495D01*
Y363162D01*
X252851Y364828D01*
X253471Y366287D01*
X254401Y367536D01*
X255486Y368370D01*
X256726Y368578D01*
X257966Y368370D01*
X259051Y367536D01*
X259981Y366287D01*
X260601Y364828D01*
X260911Y363162D01*
Y361495D01*
X260601Y359828D01*
X259981Y358370D01*
X259051Y357120D01*
X257966Y356286D01*
X256726Y356078D01*
G01X265561D02*
Y368578D01*
X272691Y356078D01*
Y368578D01*
G01X279511Y360245D02*
X283541D01*
G01X290826Y356078D02*
Y368578D01*
X294546D01*
X295786Y367953D01*
X296716Y366495D01*
X297026Y364828D01*
X296716Y363162D01*
X295941Y361911D01*
X294546Y361286D01*
X290826D01*
G01X303226Y368578D02*
Y356078D01*
X309426D01*
G01X314851D02*
X318726Y368578D01*
X322601Y356078D01*
G01X321206Y360453D02*
X316246D01*
G01X331126Y368578D02*
Y356078D01*
G01X327561Y368578D02*
X334691D01*
G01X346626Y356078D02*
X340426D01*
Y368578D01*
X346626D01*
G01X344146Y362537D02*
X340426D01*
G01X352516Y356078D02*
Y368578D01*
X355616D01*
X356856Y367953D01*
X357786Y367120D01*
X358561Y365870D01*
X359181Y364411D01*
X359336Y362328D01*
X359181Y360245D01*
X358561Y358786D01*
X357786Y357536D01*
X356856Y356703D01*
X355616Y356078D01*
X352516D01*
G01X266026Y381078D02*
Y393578D01*
X269746D01*
X270986Y392953D01*
X271916Y391495D01*
X272226Y389828D01*
X271916Y388162D01*
X271141Y386911D01*
X269746Y386286D01*
X266026D01*
G01X278426Y393578D02*
Y381078D01*
X284626D01*
G01X290051D02*
X293926Y393578D01*
X297801Y381078D01*
G01X296406Y385453D02*
X291446D01*
G01X306326Y393578D02*
Y381078D01*
G01X302761Y393578D02*
X309891D01*
G01X321826Y381078D02*
X315626D01*
Y393578D01*
X321826D01*
G01X319346Y387537D02*
X315626D01*
G01X327716Y381078D02*
Y393578D01*
X330816D01*
X332056Y392953D01*
X332986Y392120D01*
X333761Y390870D01*
X334381Y389411D01*
X334536Y387328D01*
X334381Y385245D01*
X333761Y383786D01*
X332986Y382536D01*
X332056Y381703D01*
X330816Y381078D01*
X327716D01*
G01X266026Y406078D02*
Y418578D01*
X269746D01*
X270986Y417953D01*
X271916Y416495D01*
X272226Y414828D01*
X271916Y413162D01*
X271141Y411911D01*
X269746Y411286D01*
X266026D01*
G01X278426Y418578D02*
Y406078D01*
X284626D01*
G01X290051D02*
X293926Y418578D01*
X297801Y406078D01*
G01X296406Y410453D02*
X291446D01*
G01X306326Y418578D02*
Y406078D01*
G01X302761Y418578D02*
X309891D01*
G01X321826Y406078D02*
X315626D01*
Y418578D01*
X321826D01*
G01X319346Y412537D02*
X315626D01*
G01X327716Y406078D02*
Y418578D01*
X330816D01*
X332056Y417953D01*
X332986Y417120D01*
X333761Y415870D01*
X334381Y414411D01*
X334536Y412328D01*
X334381Y410245D01*
X333761Y408786D01*
X332986Y407536D01*
X332056Y406703D01*
X330816Y406078D01*
X327716D01*
G01X266026Y431078D02*
Y443578D01*
X269746D01*
X270986Y442953D01*
X271916Y441495D01*
X272226Y439828D01*
X271916Y438162D01*
X271141Y436911D01*
X269746Y436286D01*
X266026D01*
G01X278426Y443578D02*
Y431078D01*
X284626D01*
G01X290051D02*
X293926Y443578D01*
X297801Y431078D01*
G01X296406Y435453D02*
X291446D01*
G01X306326Y443578D02*
Y431078D01*
G01X302761Y443578D02*
X309891D01*
G01X321826Y431078D02*
X315626D01*
Y443578D01*
X321826D01*
G01X319346Y437537D02*
X315626D01*
G01X327716Y431078D02*
Y443578D01*
X330816D01*
X332056Y442953D01*
X332986Y442120D01*
X333761Y440870D01*
X334381Y439411D01*
X334536Y437328D01*
X334381Y435245D01*
X333761Y433786D01*
X332986Y432536D01*
X332056Y431703D01*
X330816Y431078D01*
X327716D01*
G01X266026Y456078D02*
Y468578D01*
X269746D01*
X270986Y467953D01*
X271916Y466495D01*
X272226Y464828D01*
X271916Y463162D01*
X271141Y461911D01*
X269746Y461286D01*
X266026D01*
G01X278426Y468578D02*
Y456078D01*
X284626D01*
G01X290051D02*
X293926Y468578D01*
X297801Y456078D01*
G01X296406Y460453D02*
X291446D01*
G01X306326Y468578D02*
Y456078D01*
G01X302761Y468578D02*
X309891D01*
G01X321826Y456078D02*
X315626D01*
Y468578D01*
X321826D01*
G01X319346Y462537D02*
X315626D01*
G01X327716Y456078D02*
Y468578D01*
X330816D01*
X332056Y467953D01*
X332986Y467120D01*
X333761Y465870D01*
X334381Y464411D01*
X334536Y462328D01*
X334381Y460245D01*
X333761Y458786D01*
X332986Y457536D01*
X332056Y456703D01*
X330816Y456078D01*
X327716D01*
G01X266026Y481078D02*
Y493578D01*
X269746D01*
X270986Y492953D01*
X271916Y491495D01*
X272226Y489828D01*
X271916Y488162D01*
X271141Y486911D01*
X269746Y486286D01*
X266026D01*
G01X278426Y493578D02*
Y481078D01*
X284626D01*
G01X290051D02*
X293926Y493578D01*
X297801Y481078D01*
G01X296406Y485453D02*
X291446D01*
G01X306326Y493578D02*
Y481078D01*
G01X302761Y493578D02*
X309891D01*
G01X321826Y481078D02*
X315626D01*
Y493578D01*
X321826D01*
G01X319346Y487537D02*
X315626D01*
G01X327716Y481078D02*
Y493578D01*
X330816D01*
X332056Y492953D01*
X332986Y492120D01*
X333761Y490870D01*
X334381Y489411D01*
X334536Y487328D01*
X334381Y485245D01*
X333761Y483786D01*
X332986Y482536D01*
X332056Y481703D01*
X330816Y481078D01*
X327716D01*
G01X266026Y506078D02*
Y518578D01*
X269746D01*
X270986Y517953D01*
X271916Y516495D01*
X272226Y514828D01*
X271916Y513162D01*
X271141Y511911D01*
X269746Y511286D01*
X266026D01*
G01X278426Y518578D02*
Y506078D01*
X284626D01*
G01X290051D02*
X293926Y518578D01*
X297801Y506078D01*
G01X296406Y510453D02*
X291446D01*
G01X306326Y518578D02*
Y506078D01*
G01X302761Y518578D02*
X309891D01*
G01X321826Y506078D02*
X315626D01*
Y518578D01*
X321826D01*
G01X319346Y512537D02*
X315626D01*
G01X327716Y506078D02*
Y518578D01*
X330816D01*
X332056Y517953D01*
X332986Y517120D01*
X333761Y515870D01*
X334381Y514411D01*
X334536Y512328D01*
X334381Y510245D01*
X333761Y508786D01*
X332986Y507536D01*
X332056Y506703D01*
X330816Y506078D01*
X327716D01*
G01X266026Y531078D02*
Y543578D01*
X269746D01*
X270986Y542953D01*
X271916Y541495D01*
X272226Y539828D01*
X271916Y538162D01*
X271141Y536911D01*
X269746Y536286D01*
X266026D01*
G01X278426Y543578D02*
Y531078D01*
X284626D01*
G01X290051D02*
X293926Y543578D01*
X297801Y531078D01*
G01X296406Y535453D02*
X291446D01*
G01X306326Y543578D02*
Y531078D01*
G01X302761Y543578D02*
X309891D01*
G01X321826Y531078D02*
X315626D01*
Y543578D01*
X321826D01*
G01X319346Y537537D02*
X315626D01*
G01X327716Y531078D02*
Y543578D01*
X330816D01*
X332056Y542953D01*
X332986Y542120D01*
X333761Y540870D01*
X334381Y539411D01*
X334536Y537328D01*
X334381Y535245D01*
X333761Y533786D01*
X332986Y532536D01*
X332056Y531703D01*
X330816Y531078D01*
X327716D01*
G01X266026Y556078D02*
Y568578D01*
X269746D01*
X270986Y567953D01*
X271916Y566495D01*
X272226Y564828D01*
X271916Y563162D01*
X271141Y561911D01*
X269746Y561286D01*
X266026D01*
G01X278426Y568578D02*
Y556078D01*
X284626D01*
G01X290051D02*
X293926Y568578D01*
X297801Y556078D01*
G01X296406Y560453D02*
X291446D01*
G01X306326Y568578D02*
Y556078D01*
G01X302761Y568578D02*
X309891D01*
G01X321826Y556078D02*
X315626D01*
Y568578D01*
X321826D01*
G01X319346Y562537D02*
X315626D01*
G01X327716Y556078D02*
Y568578D01*
X330816D01*
X332056Y567953D01*
X332986Y567120D01*
X333761Y565870D01*
X334381Y564411D01*
X334536Y562328D01*
X334381Y560245D01*
X333761Y558786D01*
X332986Y557536D01*
X332056Y556703D01*
X330816Y556078D01*
X327716D01*
G01X266026Y581078D02*
Y593578D01*
X269746D01*
X270986Y592953D01*
X271916Y591495D01*
X272226Y589828D01*
X271916Y588162D01*
X271141Y586911D01*
X269746Y586286D01*
X266026D01*
G01X278426Y593578D02*
Y581078D01*
X284626D01*
G01X290051D02*
X293926Y593578D01*
X297801Y581078D01*
G01X296406Y585453D02*
X291446D01*
G01X306326Y593578D02*
Y581078D01*
G01X302761Y593578D02*
X309891D01*
G01X321826Y581078D02*
X315626D01*
Y593578D01*
X321826D01*
G01X319346Y587537D02*
X315626D01*
G01X327716Y581078D02*
Y593578D01*
X330816D01*
X332056Y592953D01*
X332986Y592120D01*
X333761Y590870D01*
X334381Y589411D01*
X334536Y587328D01*
X334381Y585245D01*
X333761Y583786D01*
X332986Y582536D01*
X332056Y581703D01*
X330816Y581078D01*
X327716D01*
G01X363676Y599828D02*
Y349828D01*
G01X399481Y366495D02*
X400411Y367745D01*
X401496Y368370D01*
X402736Y368578D01*
X404286Y368162D01*
X405371Y367120D01*
X405681Y365870D01*
X405526Y364620D01*
X404906Y363578D01*
X401806Y361495D01*
X400411Y360036D01*
X399481Y357953D01*
X399171Y356078D01*
X405681D01*
G01X399481Y391495D02*
X400411Y392745D01*
X401496Y393370D01*
X402736Y393578D01*
X404286Y393162D01*
X405371Y392120D01*
X405681Y390870D01*
X405526Y389620D01*
X404906Y388578D01*
X401806Y386495D01*
X400411Y385036D01*
X399481Y382953D01*
X399171Y381078D01*
X405681D01*
G01X399481Y416495D02*
X400411Y417745D01*
X401496Y418370D01*
X402736Y418578D01*
X404286Y418162D01*
X405371Y417120D01*
X405681Y415870D01*
X405526Y414620D01*
X404906Y413578D01*
X401806Y411495D01*
X400411Y410036D01*
X399481Y407953D01*
X399171Y406078D01*
X405681D01*
G01X404286Y431078D02*
Y443578D01*
X398551Y434620D01*
X406301D01*
G01X404286Y456078D02*
Y468578D01*
X398551Y459620D01*
X406301D01*
G01X399016Y482953D02*
X399946Y481911D01*
X401031Y481286D01*
X402426Y481078D01*
X403821Y481495D01*
X404906Y482328D01*
X405681Y483786D01*
X405836Y485453D01*
X405526Y487120D01*
X404751Y488162D01*
X403666Y488995D01*
X402581Y489203D01*
X401496Y488995D01*
X400101Y488162D01*
X400566Y493578D01*
X404751D01*
G01X396226Y506078D02*
Y518578D01*
X394366Y516078D01*
G01Y506078D02*
X398086D01*
G01X408626Y518578D02*
X407386Y518162D01*
X406456Y517120D01*
X405836Y515870D01*
X405371Y514203D01*
X405216Y512328D01*
X405371Y510453D01*
X405836Y508786D01*
X406456Y507536D01*
X407386Y506495D01*
X408626Y506078D01*
X409866Y506495D01*
X410796Y507536D01*
X411416Y508786D01*
X411881Y510453D01*
X412036Y512328D01*
X411881Y514203D01*
X411416Y515870D01*
X410796Y517120D01*
X409866Y518162D01*
X408626Y518578D01*
G01X390026Y531078D02*
Y543578D01*
X388166Y541078D01*
G01Y531078D02*
X391886D01*
G01X402426Y543578D02*
X401186Y543162D01*
X400256Y542120D01*
X399636Y540870D01*
X399171Y539203D01*
X399016Y537328D01*
X399171Y535453D01*
X399636Y533786D01*
X400256Y532536D01*
X401186Y531495D01*
X402426Y531078D01*
X403666Y531495D01*
X404596Y532536D01*
X405216Y533786D01*
X405681Y535453D01*
X405836Y537328D01*
X405681Y539203D01*
X405216Y540870D01*
X404596Y542120D01*
X403666Y543162D01*
X402426Y543578D01*
G01X414516Y531078D02*
X414826Y533786D01*
X415291Y536078D01*
X415911Y538162D01*
X416686Y540453D01*
X417926Y543578D01*
X411726D01*
G01X393591Y557536D02*
X394676Y556495D01*
X395916Y556078D01*
X397156Y556495D01*
X398241Y557744D01*
X399016Y559620D01*
X399326Y561495D01*
Y563786D01*
X399016Y565661D01*
X398241Y567328D01*
X397311Y568162D01*
X396226Y568578D01*
X394986Y568162D01*
X394056Y567328D01*
X393436Y566078D01*
X393126Y564411D01*
X393436Y562953D01*
X394211Y561495D01*
X395141Y560661D01*
X396226Y560453D01*
X397466Y560870D01*
X398396Y561911D01*
X399326Y563786D01*
G01X408626Y556078D02*
X409711Y556286D01*
X410951Y556911D01*
X411726Y557953D01*
X412036Y559412D01*
X411726Y560870D01*
X410796Y562120D01*
X409401Y562745D01*
X407851D01*
X406921Y563162D01*
X406146Y564203D01*
X405836Y565661D01*
X406301Y567120D01*
X407386Y568162D01*
X408626Y568578D01*
X409866Y568162D01*
X410951Y567120D01*
X411416Y565661D01*
X411106Y564203D01*
X410331Y563162D01*
X409401Y562745D01*
X407851D01*
X406456Y562120D01*
X405526Y560870D01*
X405216Y559412D01*
X405526Y557953D01*
X406301Y556911D01*
X407541Y556286D01*
X408626Y556078D01*
G01X390026Y581078D02*
X388786Y581286D01*
X387701Y582120D01*
X386771Y583370D01*
X386151Y584828D01*
X385841Y586495D01*
Y588162D01*
X386151Y589828D01*
X386771Y591287D01*
X387701Y592536D01*
X388786Y593370D01*
X390026Y593578D01*
X391266Y593370D01*
X392351Y592536D01*
X393281Y591287D01*
X393901Y589828D01*
X394211Y588162D01*
Y586495D01*
X393901Y584828D01*
X393281Y583370D01*
X392351Y582120D01*
X391266Y581286D01*
X390026Y581078D01*
G01X391266Y584412D02*
X393126Y581078D01*
G01X402426Y593578D02*
Y581078D01*
G01X398861Y593578D02*
X405991D01*
G01X414826Y581078D02*
Y586703D01*
X411726Y593578D01*
G01X417926D02*
X414826Y586703D01*
M02*
