G04 ================== begin FILE IDENTIFICATION RECORD ==================*
G04 Layout Name:  F:/计量采集模块部分/Ven1.0/Pcb/DataCollection.brd*
G04 Film Name:    SILKSCREEN_TOP*
G04 File Format:  Gerber RS274X*
G04 File Origin:  Cadence Allegro 16.6-2015-S066*
G04 Origin Date:  Tue Apr 11 15:49:38 2017*
G04 *
G04 Layer:  BOARD GEOMETRY/OUTLINE*
G04 Layer:  BOARD GEOMETRY/SILKSCREEN_TOP*
G04 Layer:  PACKAGE GEOMETRY/SILKSCREEN_TOP*
G04 Layer:  REF DES/SILKSCREEN_TOP*
G04 *
G04 Offset:    (0.000 0.000)*
G04 Mirror:    No*
G04 Mode:      Positive*
G04 Rotation:  0*
G04 FullContactRelief:  No*
G04 UndefLineWidth:     6.000*
G04 ================== end FILE IDENTIFICATION RECORD ====================*
%FSLAX25Y25*MOIN*%
%IR0*IPPOS*OFA0.00000B0.00000*MIA0B0*SFA1.00000B1.00000*%
%ADD10C,.004*%
%ADD11C,.006*%
%ADD12C,.003937*%
%ADD13C,.009843*%
%ADD14C,.007874*%
%ADD15C,.01*%
%ADD16C,.019685*%
G75*
%LPD*%
G75*
G36*
G01X237077Y117412D02*
G03I-787J0D01*
G37*
G36*
G01X237464Y164379D02*
G03I-787J0D01*
G37*
G36*
G01X337252Y133940D02*
G03I-1181J0D01*
G37*
G54D10*
G01X28186Y191897D02*
X25086D01*
G01Y193507D02*
X28186D01*
G01X26636D02*
Y191897D01*
G01X28186Y195202D02*
X25086D01*
X25706Y194742D01*
G01X28186D02*
Y195662D01*
G01Y260957D02*
X25086D01*
G01Y262567D02*
X28186D01*
G01X26636D02*
Y260957D01*
G01X25603Y263534D02*
X25293Y263764D01*
X25138Y264032D01*
X25086Y264339D01*
X25190Y264722D01*
X25448Y264991D01*
X25758Y265067D01*
X26068Y265029D01*
X26326Y264876D01*
X26843Y264109D01*
X27205Y263764D01*
X27722Y263534D01*
X28186Y263457D01*
Y265067D01*
G01X55200Y181700D02*
Y184800D01*
X56158D01*
X56465Y184645D01*
X56657Y184438D01*
X56734Y184025D01*
X56657Y183612D01*
X56427Y183354D01*
X56158Y183198D01*
X55200D01*
G01X56158D02*
X56734Y181700D01*
G01X58467D02*
Y184800D01*
X58007Y184180D01*
G01Y181700D02*
X58927D01*
G01X61427D02*
Y184800D01*
X60008Y182579D01*
X61925D01*
G01X55445Y205455D02*
Y208555D01*
X56403D01*
X56710Y208400D01*
X56902Y208194D01*
X56978Y207780D01*
X56902Y207367D01*
X56672Y207109D01*
X56403Y206954D01*
X55445D01*
G01X56403D02*
X56978Y205455D01*
G01X58712D02*
Y208555D01*
X58252Y207935D01*
G01Y205455D02*
X59172D01*
G01X60368Y206075D02*
X60598Y205714D01*
X60905Y205507D01*
X61250Y205455D01*
X61557Y205507D01*
X61864Y205765D01*
X62055Y206075D01*
X62093Y206385D01*
X62017Y206747D01*
X61749Y207005D01*
X61480Y207109D01*
X61135D01*
G01X61480D02*
X61710Y207264D01*
X61902Y207522D01*
X61978Y207832D01*
X61902Y208142D01*
X61710Y208400D01*
X61365Y208555D01*
X61020Y208504D01*
X60675Y208297D01*
G01X66264Y199830D02*
Y202930D01*
X67223D01*
X67529Y202775D01*
X67721Y202569D01*
X67798Y202155D01*
X67721Y201742D01*
X67491Y201484D01*
X67223Y201329D01*
X66264D01*
G01X67223D02*
X67798Y199830D01*
G01X69531D02*
Y202930D01*
X69071Y202310D01*
G01Y199830D02*
X69991D01*
G01X71188Y200295D02*
X71418Y200037D01*
X71686Y199882D01*
X72031Y199830D01*
X72376Y199934D01*
X72644Y200140D01*
X72836Y200502D01*
X72874Y200915D01*
X72798Y201329D01*
X72606Y201587D01*
X72338Y201794D01*
X72069Y201845D01*
X71801Y201794D01*
X71456Y201587D01*
X71571Y202930D01*
X72606D01*
G01X87253Y196550D02*
Y194329D01*
X87407Y193864D01*
X87713Y193554D01*
X88097Y193450D01*
X88480Y193554D01*
X88787Y193864D01*
X88940Y194329D01*
Y196550D01*
G01X90520Y193450D02*
X90597Y194122D01*
X90712Y194690D01*
X90865Y195207D01*
X91057Y195775D01*
X91363Y196550D01*
X89830D01*
G01X80408Y182072D02*
X80178Y182227D01*
X79910Y182331D01*
X79604D01*
X79259Y182176D01*
X78990Y181917D01*
X78798Y181607D01*
X78645Y181091D01*
X78607Y180626D01*
X78684Y180161D01*
X78798Y179851D01*
X79028Y179540D01*
X79297Y179334D01*
X79565Y179231D01*
X79834D01*
X80102Y179334D01*
X80332Y179489D01*
X80524Y179696D01*
G01X81337Y181814D02*
X81567Y182124D01*
X81835Y182279D01*
X82142Y182331D01*
X82525Y182227D01*
X82794Y181969D01*
X82870Y181659D01*
X82832Y181349D01*
X82678Y181091D01*
X81912Y180574D01*
X81567Y180212D01*
X81337Y179696D01*
X81260Y179231D01*
X82870D01*
G01X84565D02*
Y182331D01*
X84105Y181711D01*
G01Y179231D02*
X85025D01*
G01X112136Y265974D02*
Y263752D01*
X112289Y263287D01*
X112595Y262977D01*
X112979Y262874D01*
X113362Y262977D01*
X113669Y263287D01*
X113822Y263752D01*
Y265974D01*
G01X115479Y262874D02*
X115747Y262925D01*
X116054Y263080D01*
X116246Y263338D01*
X116322Y263700D01*
X116246Y264062D01*
X116016Y264372D01*
X115670Y264527D01*
X115287D01*
X115057Y264630D01*
X114865Y264889D01*
X114789Y265250D01*
X114904Y265612D01*
X115172Y265870D01*
X115479Y265974D01*
X115785Y265870D01*
X116054Y265612D01*
X116169Y265250D01*
X116092Y264889D01*
X115900Y264630D01*
X115670Y264527D01*
X115287D01*
X114942Y264372D01*
X114712Y264062D01*
X114636Y263700D01*
X114712Y263338D01*
X114904Y263080D01*
X115210Y262925D01*
X115479Y262874D01*
G01X176311Y186943D02*
X176081Y187098D01*
X175813Y187201D01*
X175506D01*
X175161Y187046D01*
X174893Y186788D01*
X174701Y186478D01*
X174548Y185961D01*
X174510Y185496D01*
X174586Y185031D01*
X174701Y184721D01*
X174931Y184411D01*
X175200Y184205D01*
X175468Y184101D01*
X175736D01*
X176005Y184205D01*
X176235Y184360D01*
X176426Y184566D01*
G01X177968Y184101D02*
Y187201D01*
X177508Y186581D01*
G01Y184101D02*
X178428D01*
G01X180468D02*
Y187201D01*
X180008Y186581D01*
G01Y184101D02*
X180928D01*
G01X176057Y196076D02*
X175827Y196232D01*
X175558Y196335D01*
X175252D01*
X174906Y196180D01*
X174638Y195922D01*
X174446Y195611D01*
X174293Y195095D01*
X174255Y194630D01*
X174332Y194165D01*
X174446Y193855D01*
X174676Y193545D01*
X174945Y193338D01*
X175213Y193235D01*
X175482D01*
X175750Y193338D01*
X175980Y193493D01*
X176172Y193700D01*
G01X177713Y193235D02*
Y196335D01*
X177253Y195715D01*
G01Y193235D02*
X178173D01*
G01X180213Y196335D02*
X179906Y196232D01*
X179677Y195973D01*
X179523Y195663D01*
X179408Y195250D01*
X179370Y194785D01*
X179408Y194320D01*
X179523Y193906D01*
X179677Y193596D01*
X179906Y193338D01*
X180213Y193235D01*
X180520Y193338D01*
X180750Y193596D01*
X180903Y193906D01*
X181018Y194320D01*
X181057Y194785D01*
X181018Y195250D01*
X180903Y195663D01*
X180750Y195973D01*
X180520Y196232D01*
X180213Y196335D01*
G01X195499Y77424D02*
X197720D01*
X198185Y77577D01*
X198495Y77884D01*
X198599Y78267D01*
X198495Y78651D01*
X198185Y78957D01*
X197720Y79110D01*
X195499D01*
G01X198599Y80767D02*
X195499D01*
X196119Y80307D01*
G01X198599D02*
Y81227D01*
G01X215193Y195949D02*
X214963Y196104D01*
X214695Y196207D01*
X214388D01*
X214043Y196052D01*
X213775Y195794D01*
X213583Y195484D01*
X213430Y194967D01*
X213392Y194502D01*
X213468Y194037D01*
X213583Y193727D01*
X213813Y193417D01*
X214082Y193211D01*
X214350Y193107D01*
X214618D01*
X214887Y193211D01*
X215117Y193366D01*
X215308Y193572D01*
G01X216198Y193469D02*
X216467Y193211D01*
X216773Y193107D01*
X217080Y193211D01*
X217348Y193521D01*
X217540Y193986D01*
X217617Y194451D01*
Y195019D01*
X217540Y195484D01*
X217348Y195897D01*
X217118Y196104D01*
X216850Y196207D01*
X216543Y196104D01*
X216313Y195897D01*
X216160Y195587D01*
X216083Y195174D01*
X216160Y194812D01*
X216352Y194451D01*
X216582Y194244D01*
X216850Y194192D01*
X217157Y194296D01*
X217387Y194554D01*
X217617Y195019D01*
G01X237106Y83468D02*
X236876Y83623D01*
X236608Y83726D01*
X236301D01*
X235956Y83571D01*
X235688Y83313D01*
X235496Y83003D01*
X235343Y82486D01*
X235304Y82021D01*
X235381Y81556D01*
X235496Y81246D01*
X235726Y80936D01*
X235994Y80730D01*
X236263Y80626D01*
X236531D01*
X236799Y80730D01*
X237029Y80884D01*
X237221Y81091D01*
G01X238763Y80626D02*
Y83726D01*
X238303Y83106D01*
G01Y80626D02*
X239223D01*
G01X230756Y172066D02*
X230526Y172222D01*
X230257Y172325D01*
X229951D01*
X229606Y172170D01*
X229337Y171912D01*
X229146Y171601D01*
X228992Y171085D01*
X228954Y170620D01*
X229031Y170155D01*
X229146Y169845D01*
X229376Y169535D01*
X229644Y169328D01*
X229912Y169225D01*
X230181D01*
X230449Y169328D01*
X230679Y169483D01*
X230871Y169690D01*
G01X232336Y169225D02*
X232412Y169896D01*
X232527Y170465D01*
X232681Y170982D01*
X232872Y171550D01*
X233179Y172325D01*
X231646D01*
G01X256939Y50067D02*
Y53167D01*
X257897D01*
X258204Y53012D01*
X258395Y52805D01*
X258472Y52392D01*
X258395Y51978D01*
X258165Y51720D01*
X257897Y51565D01*
X256939D01*
G01X257897D02*
X258472Y50067D01*
G01X259362Y50531D02*
X259592Y50273D01*
X259860Y50118D01*
X260205Y50067D01*
X260550Y50170D01*
X260819Y50376D01*
X261010Y50738D01*
X261049Y51152D01*
X260972Y51565D01*
X260780Y51823D01*
X260512Y52030D01*
X260244Y52082D01*
X259975Y52030D01*
X259630Y51823D01*
X259745Y53167D01*
X260780D01*
G01X255020Y109242D02*
Y107020D01*
X255173Y106555D01*
X255479Y106246D01*
X255863Y106142D01*
X256246Y106246D01*
X256553Y106555D01*
X256706Y107020D01*
Y109242D01*
G01X257634Y107434D02*
X257903Y107796D01*
X258133Y108002D01*
X258440Y108106D01*
X258708Y108002D01*
X258900Y107796D01*
X259053Y107486D01*
X259091Y107124D01*
X259053Y106814D01*
X258900Y106504D01*
X258669Y106246D01*
X258401Y106142D01*
X258095Y106246D01*
X257826Y106555D01*
X257673Y107020D01*
X257634Y107537D01*
X257711Y108209D01*
X257826Y108571D01*
X258018Y108932D01*
X258286Y109190D01*
X258555Y109242D01*
X258823Y109139D01*
X259014Y108880D01*
G01X251080Y153754D02*
Y151532D01*
X251233Y151067D01*
X251540Y150757D01*
X251923Y150654D01*
X252307Y150757D01*
X252613Y151067D01*
X252766Y151532D01*
Y153754D01*
G01X253580Y151274D02*
X253810Y150912D01*
X254116Y150706D01*
X254462Y150654D01*
X254768Y150706D01*
X255075Y150964D01*
X255267Y151274D01*
X255305Y151584D01*
X255228Y151945D01*
X254960Y152204D01*
X254691Y152307D01*
X254347D01*
G01X254691D02*
X254922Y152462D01*
X255113Y152720D01*
X255190Y153030D01*
X255113Y153340D01*
X254922Y153599D01*
X254576Y153754D01*
X254232Y153702D01*
X253886Y153495D01*
G01X279591Y49792D02*
Y52892D01*
X280549D01*
X280856Y52737D01*
X281047Y52530D01*
X281124Y52117D01*
X281047Y51704D01*
X280817Y51446D01*
X280549Y51290D01*
X279591D01*
G01X280549D02*
X281124Y49792D01*
G01X282857D02*
Y52892D01*
X282397Y52272D01*
G01Y49792D02*
X283317D01*
G01X284629Y51084D02*
X284897Y51446D01*
X285127Y51652D01*
X285434Y51756D01*
X285702Y51652D01*
X285894Y51446D01*
X286047Y51136D01*
X286086Y50774D01*
X286047Y50464D01*
X285894Y50154D01*
X285664Y49896D01*
X285396Y49792D01*
X285089Y49896D01*
X284821Y50205D01*
X284667Y50670D01*
X284629Y51187D01*
X284706Y51859D01*
X284821Y52221D01*
X285012Y52582D01*
X285281Y52840D01*
X285549Y52892D01*
X285817Y52789D01*
X286009Y52530D01*
G01X266868Y35984D02*
Y39084D01*
X267634D01*
X267941Y38929D01*
X268171Y38722D01*
X268363Y38412D01*
X268516Y38051D01*
X268554Y37534D01*
X268516Y37017D01*
X268363Y36656D01*
X268171Y36346D01*
X267941Y36139D01*
X267634Y35984D01*
X266868D01*
G01X269368Y36604D02*
X269598Y36242D01*
X269904Y36036D01*
X270249Y35984D01*
X270556Y36036D01*
X270863Y36294D01*
X271054Y36604D01*
X271093Y36914D01*
X271016Y37276D01*
X270748Y37534D01*
X270479Y37637D01*
X270134D01*
G01X270479D02*
X270709Y37792D01*
X270901Y38051D01*
X270978Y38361D01*
X270901Y38671D01*
X270709Y38929D01*
X270364Y39084D01*
X270019Y39032D01*
X269674Y38826D01*
G01X273641Y167000D02*
X273410Y167155D01*
X273142Y167258D01*
X272836D01*
X272490Y167103D01*
X272222Y166845D01*
X272030Y166535D01*
X271877Y166018D01*
X271839Y165553D01*
X271916Y165088D01*
X272030Y164778D01*
X272260Y164468D01*
X272529Y164262D01*
X272797Y164158D01*
X273066D01*
X273334Y164262D01*
X273564Y164416D01*
X273756Y164623D01*
G01X275297Y164158D02*
X275566Y164210D01*
X275872Y164365D01*
X276064Y164623D01*
X276141Y164985D01*
X276064Y165346D01*
X275834Y165656D01*
X275489Y165812D01*
X275106D01*
X274876Y165915D01*
X274684Y166173D01*
X274607Y166535D01*
X274722Y166896D01*
X274990Y167155D01*
X275297Y167258D01*
X275604Y167155D01*
X275872Y166896D01*
X275987Y166535D01*
X275910Y166173D01*
X275719Y165915D01*
X275489Y165812D01*
X275106D01*
X274760Y165656D01*
X274530Y165346D01*
X274454Y164985D01*
X274530Y164623D01*
X274722Y164365D01*
X275029Y164210D01*
X275297Y164158D01*
G01X280574Y201221D02*
X280344Y201377D01*
X280075Y201480D01*
X279769D01*
X279424Y201325D01*
X279155Y201066D01*
X278964Y200756D01*
X278810Y200240D01*
X278772Y199775D01*
X278848Y199310D01*
X278964Y199000D01*
X279194Y198690D01*
X279462Y198483D01*
X279730Y198380D01*
X279999D01*
X280267Y198483D01*
X280497Y198638D01*
X280689Y198845D01*
G01X281502Y200963D02*
X281732Y201273D01*
X282000Y201428D01*
X282307Y201480D01*
X282690Y201377D01*
X282959Y201118D01*
X283035Y200808D01*
X282997Y200498D01*
X282844Y200240D01*
X282077Y199723D01*
X281732Y199361D01*
X281502Y198845D01*
X281425Y198380D01*
X283035D01*
G01X284730Y201480D02*
X284424Y201377D01*
X284194Y201118D01*
X284040Y200808D01*
X283925Y200395D01*
X283887Y199930D01*
X283925Y199465D01*
X284040Y199051D01*
X284194Y198741D01*
X284424Y198483D01*
X284730Y198380D01*
X285037Y198483D01*
X285267Y198741D01*
X285420Y199051D01*
X285535Y199465D01*
X285574Y199930D01*
X285535Y200395D01*
X285420Y200808D01*
X285267Y201118D01*
X285037Y201377D01*
X284730Y201480D01*
G01X289584Y35984D02*
Y39084D01*
X290351D01*
X290657Y38929D01*
X290887Y38722D01*
X291079Y38412D01*
X291232Y38051D01*
X291271Y37534D01*
X291232Y37017D01*
X291079Y36656D01*
X290887Y36346D01*
X290657Y36139D01*
X290351Y35984D01*
X289584D01*
G01X292084Y36449D02*
X292314Y36191D01*
X292582Y36036D01*
X292927Y35984D01*
X293272Y36087D01*
X293541Y36294D01*
X293732Y36656D01*
X293771Y37069D01*
X293694Y37482D01*
X293502Y37741D01*
X293234Y37947D01*
X292966Y37999D01*
X292697Y37947D01*
X292352Y37741D01*
X292467Y39084D01*
X293502D01*
G01X298128Y192580D02*
Y190358D01*
X298282Y189893D01*
X298588Y189583D01*
X298972Y189480D01*
X299355Y189583D01*
X299662Y189893D01*
X299815Y190358D01*
Y192580D01*
G01X300628Y189945D02*
X300858Y189687D01*
X301127Y189532D01*
X301472Y189480D01*
X301817Y189583D01*
X302085Y189790D01*
X302277Y190152D01*
X302315Y190565D01*
X302238Y190978D01*
X302047Y191237D01*
X301778Y191443D01*
X301510Y191495D01*
X301242Y191443D01*
X300897Y191237D01*
X301012Y192580D01*
X302047D01*
G01X306526Y62179D02*
Y65279D01*
X307485D01*
X307792Y65124D01*
X307983Y64918D01*
X308060Y64504D01*
X307983Y64091D01*
X307753Y63833D01*
X307485Y63678D01*
X306526D01*
G01X307485D02*
X308060Y62179D01*
G01X309065Y63471D02*
X309333Y63833D01*
X309563Y64039D01*
X309870Y64143D01*
X310138Y64039D01*
X310330Y63833D01*
X310483Y63523D01*
X310522Y63161D01*
X310483Y62851D01*
X310330Y62541D01*
X310100Y62283D01*
X309832Y62179D01*
X309525Y62283D01*
X309256Y62593D01*
X309103Y63058D01*
X309065Y63574D01*
X309142Y64246D01*
X309256Y64608D01*
X309448Y64969D01*
X309716Y65228D01*
X309985Y65279D01*
X310253Y65176D01*
X310445Y64918D01*
G01X316505Y114279D02*
Y112058D01*
X316658Y111593D01*
X316965Y111283D01*
X317348Y111179D01*
X317731Y111283D01*
X318038Y111593D01*
X318191Y112058D01*
Y114279D01*
G01X320308Y111179D02*
Y114279D01*
X318890Y112058D01*
X320806D01*
G01X323316Y158788D02*
X323010Y158840D01*
X322741Y159046D01*
X322511Y159356D01*
X322358Y159718D01*
X322281Y160131D01*
Y160544D01*
X322358Y160958D01*
X322511Y161320D01*
X322741Y161629D01*
X323010Y161836D01*
X323316Y161888D01*
X323623Y161836D01*
X323891Y161629D01*
X324121Y161320D01*
X324275Y160958D01*
X324351Y160544D01*
Y160131D01*
X324275Y159718D01*
X324121Y159356D01*
X323891Y159046D01*
X323623Y158840D01*
X323316Y158788D01*
G01X325816D02*
Y161888D01*
X325356Y161268D01*
G01Y158788D02*
X326276D01*
G01X309219Y166755D02*
X308989Y166910D01*
X308721Y167013D01*
X308414D01*
X308069Y166858D01*
X307801Y166600D01*
X307609Y166290D01*
X307456Y165773D01*
X307417Y165308D01*
X307494Y164843D01*
X307609Y164533D01*
X307839Y164223D01*
X308107Y164016D01*
X308376Y163913D01*
X308644D01*
X308912Y164016D01*
X309142Y164172D01*
X309334Y164378D01*
G01X310876Y163913D02*
Y167013D01*
X310416Y166393D01*
G01Y163913D02*
X311336D01*
G01X313299D02*
X313376Y164585D01*
X313491Y165153D01*
X313644Y165670D01*
X313836Y166238D01*
X314142Y167013D01*
X312609D01*
G01X338798Y47129D02*
X338990Y46819D01*
X339220Y46612D01*
X339488Y46509D01*
X339795Y46612D01*
X340025Y46819D01*
X340255Y47129D01*
X340331Y47543D01*
Y49609D01*
G01X342065Y46509D02*
Y49609D01*
X341605Y48989D01*
G01Y46509D02*
X342524D01*
G01X326489Y62513D02*
Y65613D01*
X327448D01*
X327754Y65458D01*
X327946Y65251D01*
X328022Y64838D01*
X327946Y64424D01*
X327716Y64166D01*
X327448Y64011D01*
X326489D01*
G01X327448D02*
X328022Y62513D01*
G01X329104Y62874D02*
X329372Y62616D01*
X329679Y62513D01*
X329986Y62616D01*
X330254Y62926D01*
X330446Y63391D01*
X330522Y63856D01*
Y64424D01*
X330446Y64889D01*
X330254Y65303D01*
X330024Y65509D01*
X329756Y65613D01*
X329449Y65509D01*
X329219Y65303D01*
X329066Y64993D01*
X328989Y64579D01*
X329066Y64218D01*
X329258Y63856D01*
X329488Y63649D01*
X329756Y63598D01*
X330062Y63701D01*
X330292Y63959D01*
X330522Y64424D01*
G01X335846Y166186D02*
X335616Y166342D01*
X335347Y166445D01*
X335041D01*
X334696Y166290D01*
X334427Y166032D01*
X334236Y165721D01*
X334082Y165205D01*
X334044Y164740D01*
X334120Y164275D01*
X334236Y163965D01*
X334466Y163655D01*
X334734Y163448D01*
X335002Y163345D01*
X335270D01*
X335539Y163448D01*
X335769Y163603D01*
X335961Y163810D01*
G01X337502Y163345D02*
Y166445D01*
X337042Y165825D01*
G01Y163345D02*
X337962D01*
G01X340002D02*
X340270Y163396D01*
X340577Y163551D01*
X340769Y163810D01*
X340846Y164172D01*
X340769Y164533D01*
X340539Y164843D01*
X340194Y164998D01*
X339810D01*
X339580Y165102D01*
X339389Y165360D01*
X339312Y165721D01*
X339427Y166083D01*
X339696Y166342D01*
X340002Y166445D01*
X340309Y166342D01*
X340577Y166083D01*
X340692Y165721D01*
X340616Y165360D01*
X340424Y165102D01*
X340194Y164998D01*
X339810D01*
X339466Y164843D01*
X339236Y164533D01*
X339159Y164172D01*
X339236Y163810D01*
X339427Y163551D01*
X339734Y163396D01*
X340002Y163345D01*
G01X352552Y62140D02*
Y65240D01*
X353510D01*
X353817Y65085D01*
X354008Y64878D01*
X354085Y64465D01*
X354008Y64052D01*
X353778Y63794D01*
X353510Y63638D01*
X352552D01*
G01X353510D02*
X354085Y62140D01*
G01X355818D02*
Y65240D01*
X355358Y64620D01*
G01Y62140D02*
X356278D01*
G01X358318Y65240D02*
X358012Y65137D01*
X357782Y64878D01*
X357628Y64569D01*
X357513Y64155D01*
X357475Y63690D01*
X357513Y63225D01*
X357628Y62812D01*
X357782Y62502D01*
X358012Y62243D01*
X358318Y62140D01*
X358625Y62243D01*
X358855Y62502D01*
X359008Y62812D01*
X359123Y63225D01*
X359162Y63690D01*
X359123Y64155D01*
X359008Y64569D01*
X358855Y64878D01*
X358625Y65137D01*
X358318Y65240D01*
G01X375592Y86973D02*
Y90073D01*
X376550D01*
X376856Y89918D01*
X377048Y89712D01*
X377125Y89298D01*
X377048Y88885D01*
X376818Y88627D01*
X376550Y88472D01*
X375592D01*
G01X376550D02*
X377125Y86973D01*
G01X378858D02*
Y90073D01*
X378398Y89453D01*
G01Y86973D02*
X379318D01*
G01X381358D02*
Y90073D01*
X380898Y89453D01*
G01Y86973D02*
X381818D01*
G01X375592Y78300D02*
Y81400D01*
X376550D01*
X376856Y81245D01*
X377048Y81039D01*
X377125Y80625D01*
X377048Y80212D01*
X376818Y79954D01*
X376550Y79799D01*
X375592D01*
G01X376550D02*
X377125Y78300D01*
G01X378858D02*
Y81400D01*
X378398Y80780D01*
G01Y78300D02*
X379318D01*
G01X380630Y80884D02*
X380860Y81194D01*
X381128Y81349D01*
X381435Y81400D01*
X381818Y81297D01*
X382087Y81039D01*
X382163Y80729D01*
X382125Y80419D01*
X381972Y80160D01*
X381205Y79644D01*
X380860Y79282D01*
X380630Y78765D01*
X380553Y78300D01*
X382163D01*
G01X377202Y116148D02*
X376972Y116303D01*
X376703Y116406D01*
X376397D01*
X376052Y116251D01*
X375783Y115993D01*
X375592Y115683D01*
X375438Y115166D01*
X375400Y114701D01*
X375476Y114236D01*
X375592Y113926D01*
X375822Y113616D01*
X376090Y113409D01*
X376358Y113306D01*
X376626D01*
X376895Y113409D01*
X377125Y113564D01*
X377317Y113771D01*
G01X378858Y113306D02*
Y116406D01*
X378398Y115786D01*
G01Y113306D02*
X379318D01*
G01X380515Y113926D02*
X380745Y113564D01*
X381052Y113358D01*
X381397Y113306D01*
X381703Y113358D01*
X382010Y113616D01*
X382202Y113926D01*
X382240Y114236D01*
X382163Y114598D01*
X381895Y114856D01*
X381626Y114959D01*
X381282D01*
G01X381626D02*
X381856Y115114D01*
X382048Y115373D01*
X382125Y115683D01*
X382048Y115993D01*
X381856Y116251D01*
X381512Y116406D01*
X381166Y116354D01*
X380822Y116148D01*
G01X377202Y107144D02*
X376972Y107299D01*
X376703Y107402D01*
X376397D01*
X376052Y107247D01*
X375783Y106989D01*
X375592Y106679D01*
X375438Y106162D01*
X375400Y105697D01*
X375476Y105232D01*
X375592Y104922D01*
X375822Y104612D01*
X376090Y104406D01*
X376358Y104302D01*
X376626D01*
X376895Y104406D01*
X377125Y104561D01*
X377317Y104767D01*
G01X378858Y104302D02*
Y107402D01*
X378398Y106782D01*
G01Y104302D02*
X379318D01*
G01X380630Y106886D02*
X380860Y107196D01*
X381128Y107351D01*
X381435Y107402D01*
X381818Y107299D01*
X382087Y107041D01*
X382163Y106731D01*
X382125Y106421D01*
X381972Y106162D01*
X381205Y105646D01*
X380860Y105284D01*
X380630Y104767D01*
X380553Y104302D01*
X382163D01*
G01X377202Y98498D02*
X376972Y98653D01*
X376703Y98756D01*
X376397D01*
X376052Y98601D01*
X375783Y98343D01*
X375592Y98033D01*
X375438Y97516D01*
X375400Y97051D01*
X375476Y96586D01*
X375592Y96276D01*
X375822Y95966D01*
X376090Y95760D01*
X376358Y95656D01*
X376626D01*
X376895Y95760D01*
X377125Y95914D01*
X377317Y96121D01*
G01X378858Y95656D02*
Y98756D01*
X378398Y98136D01*
G01Y95656D02*
X379318D01*
G01X380706Y96018D02*
X380975Y95760D01*
X381282Y95656D01*
X381588Y95760D01*
X381856Y96069D01*
X382048Y96534D01*
X382125Y97000D01*
Y97568D01*
X382048Y98033D01*
X381856Y98446D01*
X381626Y98653D01*
X381358Y98756D01*
X381052Y98653D01*
X380822Y98446D01*
X380668Y98136D01*
X380592Y97723D01*
X380668Y97361D01*
X380860Y97000D01*
X381090Y96793D01*
X381358Y96741D01*
X381665Y96845D01*
X381895Y97103D01*
X382125Y97568D01*
G01X375587Y122185D02*
Y125285D01*
X376546D01*
X376852Y125130D01*
X377044Y124923D01*
X377120Y124510D01*
X377044Y124096D01*
X376814Y123838D01*
X376546Y123683D01*
X375587D01*
G01X376546D02*
X377120Y122185D01*
G01X378777D02*
X378854Y122856D01*
X378969Y123425D01*
X379122Y123942D01*
X379314Y124510D01*
X379620Y125285D01*
X378087D01*
G01X377202Y133846D02*
X376972Y134001D01*
X376703Y134104D01*
X376397D01*
X376052Y133949D01*
X375783Y133691D01*
X375592Y133381D01*
X375438Y132864D01*
X375400Y132399D01*
X375476Y131934D01*
X375592Y131624D01*
X375822Y131314D01*
X376090Y131108D01*
X376358Y131004D01*
X376626D01*
X376895Y131108D01*
X377125Y131263D01*
X377317Y131469D01*
G01X378858Y131004D02*
Y134104D01*
X378398Y133484D01*
G01Y131004D02*
X379318D01*
G01X381818D02*
Y134104D01*
X380400Y131883D01*
X382317D01*
G01X375587Y157504D02*
Y160604D01*
X376546D01*
X376852Y160449D01*
X377044Y160242D01*
X377120Y159829D01*
X377044Y159416D01*
X376814Y159157D01*
X376546Y159002D01*
X375587D01*
G01X376546D02*
X377120Y157504D01*
G01X378854D02*
X379122Y157556D01*
X379429Y157711D01*
X379620Y157969D01*
X379697Y158331D01*
X379620Y158692D01*
X379390Y159002D01*
X379046Y159157D01*
X378662D01*
X378432Y159261D01*
X378240Y159519D01*
X378164Y159881D01*
X378279Y160242D01*
X378547Y160501D01*
X378854Y160604D01*
X379160Y160501D01*
X379429Y160242D01*
X379544Y159881D01*
X379467Y159519D01*
X379276Y159261D01*
X379046Y159157D01*
X378662D01*
X378317Y159002D01*
X378087Y158692D01*
X378010Y158331D01*
X378087Y157969D01*
X378279Y157711D01*
X378586Y157556D01*
X378854Y157504D01*
G01X377202Y151437D02*
X376972Y151592D01*
X376703Y151696D01*
X376397D01*
X376052Y151541D01*
X375783Y151282D01*
X375592Y150972D01*
X375438Y150456D01*
X375400Y149991D01*
X375476Y149526D01*
X375592Y149216D01*
X375822Y148906D01*
X376090Y148699D01*
X376358Y148596D01*
X376626D01*
X376895Y148699D01*
X377125Y148854D01*
X377317Y149061D01*
G01X378858Y148596D02*
Y151696D01*
X378398Y151076D01*
G01Y148596D02*
X379318D01*
G01X380630Y149887D02*
X380898Y150249D01*
X381128Y150456D01*
X381435Y150559D01*
X381703Y150456D01*
X381895Y150249D01*
X382048Y149939D01*
X382087Y149577D01*
X382048Y149267D01*
X381895Y148957D01*
X381665Y148699D01*
X381397Y148596D01*
X381090Y148699D01*
X380822Y149009D01*
X380668Y149474D01*
X380630Y149991D01*
X380706Y150662D01*
X380822Y151024D01*
X381013Y151386D01*
X381282Y151644D01*
X381550Y151696D01*
X381818Y151592D01*
X382010Y151334D01*
G01X377202Y142282D02*
X376972Y142438D01*
X376703Y142541D01*
X376397D01*
X376052Y142386D01*
X375783Y142128D01*
X375592Y141817D01*
X375438Y141301D01*
X375400Y140836D01*
X375476Y140371D01*
X375592Y140061D01*
X375822Y139751D01*
X376090Y139544D01*
X376358Y139441D01*
X376626D01*
X376895Y139544D01*
X377125Y139699D01*
X377317Y139906D01*
G01X378858Y139441D02*
Y142541D01*
X378398Y141921D01*
G01Y139441D02*
X379318D01*
G01X380515Y139906D02*
X380745Y139647D01*
X381013Y139492D01*
X381358Y139441D01*
X381703Y139544D01*
X381972Y139751D01*
X382163Y140112D01*
X382202Y140526D01*
X382125Y140939D01*
X381933Y141198D01*
X381665Y141404D01*
X381397Y141456D01*
X381128Y141404D01*
X380783Y141198D01*
X380898Y142541D01*
X381933D01*
G54D11*
G01X40418Y185421D02*
X40571Y185576D01*
X40686Y185835D01*
X40763Y186196D01*
X40686Y186506D01*
X40533Y186713D01*
X40265Y186868D01*
X39230D01*
Y183768D01*
X40495D01*
X40763Y183975D01*
X40916Y184285D01*
X40993Y184646D01*
X40916Y185008D01*
X40686Y185318D01*
X40418Y185421D01*
X39230D01*
G01X39153Y204074D02*
X40111Y207174D01*
X41070Y204074D01*
G01X40725Y205159D02*
X39498D01*
G01X39230Y247968D02*
Y251068D01*
X40993Y247968D01*
Y251068D01*
G01X39345Y272530D02*
Y269430D01*
X40878D01*
G01X331256Y52991D02*
Y57991D01*
X351256D01*
Y37991D01*
X331256D01*
Y52991D01*
G01X19685Y35000D02*
X374015D01*
G03X393700Y54685I0J19685D01*
G01Y295315D01*
G03X374015Y315000I-19685J0D01*
G01X19685D01*
G03X0Y295315I0J-19685D01*
G01Y54685D01*
G03X19685Y35000I19685J0D01*
G01X274964Y269876D02*
Y268084D01*
X275071Y267709D01*
X275284Y267459D01*
X275551Y267376D01*
X275818Y267459D01*
X276031Y267709D01*
X276138Y268084D01*
Y269876D01*
G01X277298Y267667D02*
X277484Y267459D01*
X277698Y267376D01*
X277911Y267459D01*
X278098Y267709D01*
X278231Y268084D01*
X278284Y268459D01*
Y268917D01*
X278231Y269292D01*
X278098Y269626D01*
X277938Y269792D01*
X277751Y269876D01*
X277538Y269792D01*
X277378Y269626D01*
X277271Y269376D01*
X277218Y269042D01*
X277271Y268750D01*
X277404Y268459D01*
X277564Y268292D01*
X277751Y268251D01*
X277964Y268334D01*
X278124Y268542D01*
X278284Y268917D01*
G54D12*
G01X56469Y204563D02*
X60800D01*
Y196689D01*
X56075D01*
Y204563D01*
X56469D01*
G01Y193528D02*
X60800D01*
Y185654D01*
X56075D01*
Y193528D01*
X56469D01*
G01X71744Y191181D02*
X67414D01*
Y199055D01*
X72138D01*
Y191181D01*
X71744D01*
G01X85537Y178646D02*
Y182976D01*
X93411D01*
Y178252D01*
X85537D01*
Y178646D01*
G01X190264Y187483D02*
Y183152D01*
X182390D01*
Y187876D01*
X190264D01*
Y187483D01*
G01X190294Y196498D02*
Y192168D01*
X182420D01*
Y196892D01*
X190294D01*
Y196498D01*
G01X233576Y76000D02*
Y80331D01*
X241450D01*
Y75607D01*
X233576D01*
Y76000D01*
G01X229204Y168499D02*
X233534D01*
Y160625D01*
X228810D01*
Y168499D01*
X229204D01*
G01X256644Y49105D02*
X260974D01*
Y41231D01*
X256250D01*
Y49105D01*
X256644D01*
G01X284306Y41231D02*
X279976D01*
Y49105D01*
X284700D01*
Y41231D01*
X284306D01*
G01X265527Y50432D02*
Y40589D01*
X271826D01*
Y50825D01*
X265527D01*
Y50432D01*
G01X270473Y159114D02*
Y163445D01*
X278347D01*
Y158720D01*
X270473D01*
Y159114D01*
G01X278146Y192983D02*
Y197314D01*
X286020D01*
Y192589D01*
X278146D01*
Y192983D01*
G01X288126Y50432D02*
Y40589D01*
X294425D01*
Y50825D01*
X288126D01*
Y50432D01*
G01X311358Y61643D02*
Y65974D01*
X319232D01*
Y61250D01*
X311358D01*
Y61643D01*
G01X308966Y162922D02*
X313297D01*
Y155048D01*
X308572D01*
Y162922D01*
X308966D01*
G01X351631Y65590D02*
Y61259D01*
X343757D01*
Y65984D01*
X351631D01*
Y65590D01*
G01X339254D02*
Y61259D01*
X331380D01*
Y65984D01*
X339254D01*
Y65590D01*
G01X335475Y162236D02*
X339806D01*
Y154362D01*
X335081D01*
Y162236D01*
X335475D01*
G01X374534Y90560D02*
Y86230D01*
X366660D01*
Y90954D01*
X374534D01*
Y90560D01*
G01X366660Y77813D02*
Y82144D01*
X374534D01*
Y77420D01*
X366660D01*
Y77813D01*
G01X374534Y116991D02*
Y112661D01*
X366660D01*
Y117385D01*
X374534D01*
Y116991D01*
G01Y108181D02*
Y103850D01*
X366660D01*
Y108574D01*
X374534D01*
Y108181D01*
G01X366660Y95434D02*
Y99764D01*
X374534D01*
Y95040D01*
X366660D01*
Y95434D01*
G01Y121864D02*
Y126195D01*
X374534D01*
Y121471D01*
X366660D01*
Y121864D01*
G01X374534Y134612D02*
Y130281D01*
X366660D01*
Y135005D01*
X374534D01*
Y134612D01*
G01X374534Y161042D02*
Y156711D01*
X366660D01*
Y161436D01*
X374534D01*
Y161042D01*
G01X374534Y152232D02*
Y147901D01*
X366660D01*
Y152626D01*
X374534D01*
Y152232D01*
G01Y143422D02*
Y139091D01*
X366660D01*
Y143815D01*
X374534D01*
Y143422D01*
G54D13*
G01X102064Y184389D02*
G03I-492J0D01*
G01X196019Y194393D02*
G03I-492J0D01*
G01X315582Y153140D02*
X332882D01*
Y167340D01*
X315582D01*
Y153140D01*
G01X319753Y151369D02*
G03I-492J0D01*
G54D14*
G01X853Y177618D02*
X5853Y180118D01*
X8353D01*
G01Y175118D02*
Y215118D01*
G01X33022D02*
Y175118D01*
X522D01*
Y215118D01*
X33022D01*
G01X10522Y175118D02*
Y215118D01*
G01X853Y197618D02*
X5853Y200118D01*
X8353D01*
G01X853Y192618D02*
X5853Y190118D01*
X8353D01*
G01X853Y212618D02*
X5853Y210118D01*
X8353D01*
G01X353Y258072D02*
X5353Y255572D01*
X7853D01*
G01X353Y243072D02*
X5353Y245572D01*
X7853D01*
G01Y240572D02*
Y280572D01*
G01X32522D02*
Y240572D01*
X22D01*
Y280572D01*
X32522D01*
G01X10022Y240572D02*
Y280572D01*
G01X353Y278072D02*
X5353Y275572D01*
X7853D01*
G01X353Y263072D02*
X5353Y265572D01*
X7853D01*
G01X30522Y175118D02*
Y215118D01*
G01X23022Y175118D02*
Y215118D01*
G01X30022Y240572D02*
Y280572D01*
G01X22522Y240572D02*
Y280572D01*
G01X49736Y219731D02*
X182414D01*
Y307133D01*
X49736D01*
Y219731D01*
G01X95273Y204862D02*
Y185570D01*
X82675D01*
Y204862D01*
X95273D01*
G01X184751Y307376D02*
X384751D01*
Y207376D01*
X184751D01*
Y307376D01*
G01X199858Y188094D02*
Y185731D01*
X228598D01*
Y188094D01*
G01X199858Y200692D02*
Y203054D01*
X228598D01*
Y200692D01*
G01X245935Y98337D02*
Y119125D01*
X266605D01*
Y98337D01*
X245935D01*
G01X245338Y139379D02*
Y164970D01*
X261185D01*
Y139379D01*
X245338D01*
G01X269233Y40195D02*
G03I-557J0D01*
G01X291832Y40195D02*
G03I-557J0D01*
G01X300047Y130790D02*
X336071D01*
Y94766D01*
X300047D01*
Y130790D01*
G54D15*
G01X201584Y167717D02*
X797D01*
Y49607D01*
X201584D01*
Y167717D01*
G54D16*
G01X92320Y189507D02*
G03I-984J0D01*
M02*
