G04 ================== begin FILE IDENTIFICATION RECORD ==================*
G04 Layout Name:  F:/计量采集模块部分/Ven1.0/Pcb/DataCollection.brd*
G04 Film Name:    SILKSCREEN_BOTTOM*
G04 File Format:  Gerber RS274X*
G04 File Origin:  Cadence Allegro 16.6-2015-S066*
G04 Origin Date:  Tue Apr 11 15:49:38 2017*
G04 *
G04 Layer:  BOARD GEOMETRY/OUTLINE*
G04 Layer:  BOARD GEOMETRY/SILKSCREEN_BOTTOM*
G04 Layer:  PACKAGE GEOMETRY/SILKSCREEN_BOTTOM*
G04 Layer:  REF DES/SILKSCREEN_BOTTOM*
G04 *
G04 Offset:    (0.000 0.000)*
G04 Mirror:    No*
G04 Mode:      Positive*
G04 Rotation:  0*
G04 FullContactRelief:  No*
G04 UndefLineWidth:     6.000*
G04 ================== end FILE IDENTIFICATION RECORD ====================*
%FSLAX25Y25*MOIN*%
%IR0*IPPOS*OFA0.00000B0.00000*MIA0B0*SFA1.00000B1.00000*%
%ADD10C,.004*%
%ADD11C,.003937*%
%ADD12C,.009843*%
%ADD13C,.007874*%
%ADD14C,.006*%
%ADD15C,.019685*%
G75*
%LPD*%
G75*
G36*
G01X308884Y214724D02*
G03I-591J0D01*
G37*
G36*
G01X353458Y289231D02*
G03I-590J0D01*
G37*
G54D10*
G01X90224Y157361D02*
X90454Y157516D01*
X90722Y157619D01*
X91029D01*
X91374Y157464D01*
X91642Y157206D01*
X91834Y156896D01*
X91987Y156379D01*
X92025Y155914D01*
X91949Y155449D01*
X91834Y155139D01*
X91604Y154829D01*
X91335Y154622D01*
X91067Y154519D01*
X90799D01*
X90530Y154622D01*
X90300Y154778D01*
X90109Y154984D01*
G01X89410Y155139D02*
X89180Y154778D01*
X88874Y154571D01*
X88529Y154519D01*
X88222Y154571D01*
X87915Y154829D01*
X87724Y155139D01*
X87685Y155449D01*
X87762Y155811D01*
X88030Y156069D01*
X88299Y156173D01*
X88644D01*
G01X88299D02*
X88069Y156328D01*
X87877Y156586D01*
X87800Y156896D01*
X87877Y157206D01*
X88069Y157464D01*
X88414Y157619D01*
X88759Y157568D01*
X89104Y157361D01*
G01X115663Y98715D02*
Y96493D01*
X115510Y96028D01*
X115204Y95718D01*
X114820Y95615D01*
X114437Y95718D01*
X114130Y96028D01*
X113977Y96493D01*
Y98715D01*
G01X113048Y98198D02*
X112818Y98508D01*
X112550Y98663D01*
X112243Y98715D01*
X111860Y98612D01*
X111592Y98353D01*
X111515Y98043D01*
X111553Y97733D01*
X111707Y97475D01*
X112473Y96958D01*
X112818Y96597D01*
X113048Y96080D01*
X113125Y95615D01*
X111515D01*
G01X117371Y156195D02*
Y159295D01*
X116604D01*
X116297Y159140D01*
X116067Y158933D01*
X115876Y158623D01*
X115722Y158262D01*
X115684Y157745D01*
X115722Y157228D01*
X115876Y156867D01*
X116067Y156557D01*
X116297Y156350D01*
X116604Y156195D01*
X117371D01*
G01X114756Y158778D02*
X114526Y159088D01*
X114257Y159243D01*
X113951Y159295D01*
X113567Y159192D01*
X113299Y158933D01*
X113222Y158623D01*
X113261Y158313D01*
X113414Y158055D01*
X114181Y157538D01*
X114526Y157177D01*
X114756Y156660D01*
X114832Y156195D01*
X113222D01*
G01X99584Y163055D02*
Y166155D01*
X98817D01*
X98510Y166000D01*
X98280Y165793D01*
X98089Y165483D01*
X97935Y165122D01*
X97897Y164605D01*
X97935Y164088D01*
X98089Y163727D01*
X98280Y163417D01*
X98510Y163210D01*
X98817Y163055D01*
X99584D01*
G01X96240D02*
Y166155D01*
X96700Y165535D01*
G01Y163055D02*
X95780D01*
G01X152405Y95176D02*
X152635Y95331D01*
X152903Y95434D01*
X153210D01*
X153555Y95279D01*
X153823Y95021D01*
X154015Y94711D01*
X154168Y94194D01*
X154206Y93729D01*
X154130Y93264D01*
X154015Y92954D01*
X153785Y92644D01*
X153516Y92437D01*
X153248Y92334D01*
X152980D01*
X152711Y92437D01*
X152481Y92592D01*
X152290Y92799D01*
G01X151591D02*
X151361Y92541D01*
X151093Y92386D01*
X150748Y92334D01*
X150403Y92437D01*
X150135Y92644D01*
X149943Y93006D01*
X149905Y93419D01*
X149981Y93832D01*
X150173Y94091D01*
X150441Y94297D01*
X150710Y94349D01*
X150978Y94297D01*
X151323Y94091D01*
X151208Y95434D01*
X150173D01*
G01X152336Y85366D02*
X152566Y85521D01*
X152834Y85624D01*
X153141D01*
X153486Y85469D01*
X153754Y85211D01*
X153946Y84901D01*
X154099Y84384D01*
X154138Y83919D01*
X154061Y83454D01*
X153946Y83144D01*
X153716Y82834D01*
X153448Y82628D01*
X153179Y82524D01*
X152911D01*
X152643Y82628D01*
X152413Y82782D01*
X152221Y82989D01*
G01X151408Y83816D02*
X151139Y84178D01*
X150909Y84384D01*
X150603Y84488D01*
X150334Y84384D01*
X150143Y84178D01*
X149989Y83868D01*
X149951Y83506D01*
X149989Y83196D01*
X150143Y82886D01*
X150373Y82628D01*
X150641Y82524D01*
X150948Y82628D01*
X151216Y82937D01*
X151369Y83402D01*
X151408Y83919D01*
X151331Y84591D01*
X151216Y84953D01*
X151024Y85314D01*
X150756Y85572D01*
X150488Y85624D01*
X150219Y85521D01*
X150028Y85262D01*
G01X152562Y105083D02*
X152792Y105238D01*
X153060Y105342D01*
X153366D01*
X153712Y105187D01*
X153980Y104928D01*
X154172Y104618D01*
X154325Y104102D01*
X154363Y103637D01*
X154286Y103172D01*
X154172Y102862D01*
X153942Y102552D01*
X153673Y102345D01*
X153405Y102242D01*
X153136D01*
X152868Y102345D01*
X152638Y102500D01*
X152446Y102707D01*
G01X150445Y102242D02*
Y105342D01*
X151863Y103120D01*
X149946D01*
G01X173703Y71881D02*
Y74981D01*
X172744D01*
X172438Y74826D01*
X172246Y74620D01*
X172170Y74206D01*
X172246Y73793D01*
X172476Y73535D01*
X172744Y73380D01*
X173703D01*
G01X172744D02*
X172170Y71881D01*
G01X170436D02*
Y74981D01*
X170896Y74361D01*
G01Y71881D02*
X169976D01*
G01X172896Y68657D02*
X173126Y68812D01*
X173395Y68915D01*
X173701D01*
X174046Y68760D01*
X174315Y68502D01*
X174506Y68192D01*
X174660Y67675D01*
X174698Y67210D01*
X174621Y66745D01*
X174506Y66435D01*
X174276Y66125D01*
X174008Y65918D01*
X173740Y65815D01*
X173472D01*
X173203Y65918D01*
X172973Y66074D01*
X172781Y66280D01*
G01X171968Y68398D02*
X171738Y68708D01*
X171470Y68864D01*
X171163Y68915D01*
X170780Y68812D01*
X170511Y68554D01*
X170435Y68244D01*
X170473Y67934D01*
X170626Y67675D01*
X171393Y67159D01*
X171738Y66797D01*
X171968Y66280D01*
X172045Y65815D01*
X170435D01*
G01X173948Y84425D02*
Y87525D01*
X172990D01*
X172683Y87370D01*
X172491Y87164D01*
X172414Y86750D01*
X172491Y86337D01*
X172721Y86079D01*
X172990Y85924D01*
X173948D01*
G01X172990D02*
X172414Y84425D01*
G01X171410Y87009D02*
X171180Y87319D01*
X170911Y87474D01*
X170604Y87525D01*
X170221Y87422D01*
X169953Y87164D01*
X169876Y86854D01*
X169914Y86544D01*
X170068Y86285D01*
X170834Y85769D01*
X171180Y85407D01*
X171410Y84890D01*
X171486Y84425D01*
X169876D01*
G01X174183Y90629D02*
Y93729D01*
X173225D01*
X172918Y93574D01*
X172726Y93367D01*
X172650Y92954D01*
X172726Y92540D01*
X172956Y92282D01*
X173225Y92127D01*
X174183D01*
G01X173225D02*
X172650Y90629D01*
G01X171760Y91249D02*
X171530Y90887D01*
X171223Y90680D01*
X170878Y90629D01*
X170571Y90680D01*
X170265Y90939D01*
X170073Y91249D01*
X170035Y91559D01*
X170111Y91920D01*
X170380Y92179D01*
X170648Y92282D01*
X170993D01*
G01X170648D02*
X170418Y92437D01*
X170226Y92695D01*
X170150Y93005D01*
X170226Y93316D01*
X170418Y93574D01*
X170763Y93729D01*
X171108Y93677D01*
X171453Y93470D01*
G01X174026Y78232D02*
Y81332D01*
X173068D01*
X172761Y81177D01*
X172570Y80970D01*
X172493Y80557D01*
X172570Y80143D01*
X172800Y79885D01*
X173068Y79730D01*
X174026D01*
G01X173068D02*
X172493Y78232D01*
G01X170300D02*
Y81332D01*
X171718Y79110D01*
X169801D01*
G01X219210Y274144D02*
Y277244D01*
X218251D01*
X217945Y277088D01*
X217753Y276882D01*
X217676Y276469D01*
X217753Y276055D01*
X217983Y275797D01*
X218251Y275642D01*
X219210D01*
G01X218251D02*
X217676Y274144D01*
G01X215943D02*
Y277244D01*
X216403Y276624D01*
G01Y274144D02*
X215483D01*
G01X214095Y274505D02*
X213826Y274247D01*
X213520Y274144D01*
X213213Y274247D01*
X212945Y274557D01*
X212753Y275022D01*
X212676Y275487D01*
Y276055D01*
X212753Y276520D01*
X212945Y276934D01*
X213175Y277140D01*
X213443Y277244D01*
X213750Y277140D01*
X213980Y276934D01*
X214133Y276624D01*
X214210Y276210D01*
X214133Y275849D01*
X213941Y275487D01*
X213711Y275280D01*
X213443Y275229D01*
X213136Y275332D01*
X212906Y275590D01*
X212676Y276055D01*
G01X219239Y267597D02*
Y270697D01*
X218281D01*
X217974Y270542D01*
X217782Y270336D01*
X217706Y269922D01*
X217782Y269509D01*
X218012Y269251D01*
X218281Y269096D01*
X219239D01*
G01X218281D02*
X217706Y267597D01*
G01X216701Y270180D02*
X216471Y270490D01*
X216202Y270646D01*
X215896Y270697D01*
X215512Y270594D01*
X215244Y270336D01*
X215167Y270026D01*
X215206Y269716D01*
X215359Y269457D01*
X216126Y268940D01*
X216471Y268579D01*
X216701Y268062D01*
X216777Y267597D01*
X215167D01*
G01X213472D02*
Y270697D01*
X213932Y270077D01*
G01Y267597D02*
X213012D01*
G01X240216Y237691D02*
Y234591D01*
X238682D01*
G01X236949D02*
Y237691D01*
X237409Y237071D01*
G01Y234591D02*
X236489D01*
G01X230727Y257778D02*
Y260878D01*
X229961D01*
X229654Y260722D01*
X229424Y260516D01*
X229232Y260206D01*
X229079Y259844D01*
X229041Y259328D01*
X229079Y258811D01*
X229232Y258449D01*
X229424Y258139D01*
X229654Y257933D01*
X229961Y257778D01*
X230727D01*
G01X228112Y259069D02*
X227844Y259431D01*
X227614Y259638D01*
X227307Y259741D01*
X227039Y259638D01*
X226847Y259431D01*
X226694Y259121D01*
X226656Y258759D01*
X226694Y258449D01*
X226847Y258139D01*
X227077Y257881D01*
X227346Y257778D01*
X227652Y257881D01*
X227921Y258191D01*
X228074Y258656D01*
X228112Y259173D01*
X228036Y259844D01*
X227921Y260206D01*
X227729Y260568D01*
X227461Y260826D01*
X227192Y260878D01*
X226924Y260774D01*
X226732Y260516D01*
G01X237798Y281993D02*
X238028Y282148D01*
X238296Y282251D01*
X238602D01*
X238948Y282096D01*
X239216Y281838D01*
X239408Y281528D01*
X239561Y281011D01*
X239599Y280546D01*
X239522Y280081D01*
X239408Y279771D01*
X239178Y279461D01*
X238909Y279255D01*
X238641Y279151D01*
X238372D01*
X238104Y279255D01*
X237874Y279410D01*
X237682Y279616D01*
G01X236984Y279771D02*
X236754Y279410D01*
X236448Y279203D01*
X236102Y279151D01*
X235796Y279203D01*
X235489Y279461D01*
X235297Y279771D01*
X235259Y280081D01*
X235336Y280443D01*
X235604Y280701D01*
X235872Y280805D01*
X236218D01*
G01X235872D02*
X235643Y280960D01*
X235451Y281218D01*
X235374Y281528D01*
X235451Y281838D01*
X235643Y282096D01*
X235988Y282251D01*
X236332Y282200D01*
X236678Y281993D01*
G01X233181Y279151D02*
Y282251D01*
X234599Y280030D01*
X232682D01*
G01X239280Y283336D02*
Y286436D01*
X238322D01*
X238015Y286281D01*
X237823Y286074D01*
X237747Y285661D01*
X237823Y285248D01*
X238053Y284989D01*
X238322Y284834D01*
X239280D01*
G01X238322D02*
X237747Y283336D01*
G01X236013D02*
Y286436D01*
X236473Y285816D01*
G01Y283336D02*
X235553D01*
G01X233513D02*
X233245Y283388D01*
X232938Y283543D01*
X232747Y283801D01*
X232670Y284163D01*
X232747Y284524D01*
X232977Y284834D01*
X233322Y284989D01*
X233705D01*
X233935Y285093D01*
X234127Y285351D01*
X234203Y285713D01*
X234088Y286074D01*
X233820Y286333D01*
X233513Y286436D01*
X233207Y286333D01*
X232938Y286074D01*
X232823Y285713D01*
X232900Y285351D01*
X233092Y285093D01*
X233322Y284989D01*
X233705D01*
X234050Y284834D01*
X234280Y284524D01*
X234357Y284163D01*
X234280Y283801D01*
X234088Y283543D01*
X233782Y283388D01*
X233513Y283336D01*
G01X259848Y211835D02*
X260078Y211990D01*
X260346Y212093D01*
X260652D01*
X260998Y211938D01*
X261266Y211680D01*
X261458Y211370D01*
X261611Y210853D01*
X261649Y210388D01*
X261572Y209923D01*
X261458Y209613D01*
X261228Y209303D01*
X260959Y209097D01*
X260691Y208993D01*
X260422D01*
X260154Y209097D01*
X259924Y209252D01*
X259732Y209458D01*
G01X259034Y209613D02*
X258804Y209252D01*
X258498Y209045D01*
X258152Y208993D01*
X257846Y209045D01*
X257539Y209303D01*
X257348Y209613D01*
X257309Y209923D01*
X257386Y210285D01*
X257654Y210543D01*
X257922Y210647D01*
X258268D01*
G01X257922D02*
X257692Y210802D01*
X257501Y211060D01*
X257424Y211370D01*
X257501Y211680D01*
X257692Y211938D01*
X258038Y212093D01*
X258382Y212042D01*
X258728Y211835D01*
G01X255768Y208993D02*
X255691Y209665D01*
X255576Y210233D01*
X255422Y210750D01*
X255231Y211318D01*
X254924Y212093D01*
X256458D01*
G01X260494Y240921D02*
X260724Y241076D01*
X260993Y241180D01*
X261299D01*
X261644Y241024D01*
X261913Y240766D01*
X262104Y240456D01*
X262258Y239940D01*
X262296Y239475D01*
X262219Y239010D01*
X262104Y238700D01*
X261874Y238390D01*
X261606Y238183D01*
X261338Y238080D01*
X261069D01*
X260801Y238183D01*
X260571Y238338D01*
X260379Y238545D01*
G01X259681Y238700D02*
X259451Y238338D01*
X259144Y238131D01*
X258799Y238080D01*
X258493Y238131D01*
X258186Y238390D01*
X257994Y238700D01*
X257956Y239010D01*
X258033Y239371D01*
X258301Y239630D01*
X258569Y239733D01*
X258914D01*
G01X258569D02*
X258339Y239888D01*
X258148Y240146D01*
X258071Y240456D01*
X258148Y240766D01*
X258339Y241024D01*
X258684Y241180D01*
X259029Y241128D01*
X259374Y240921D01*
G01X256989Y238441D02*
X256721Y238183D01*
X256414Y238080D01*
X256108Y238183D01*
X255839Y238493D01*
X255648Y238958D01*
X255571Y239423D01*
Y239991D01*
X255648Y240456D01*
X255839Y240870D01*
X256069Y241076D01*
X256338Y241180D01*
X256644Y241076D01*
X256874Y240870D01*
X257028Y240560D01*
X257104Y240146D01*
X257028Y239785D01*
X256836Y239423D01*
X256606Y239216D01*
X256338Y239165D01*
X256031Y239268D01*
X255801Y239526D01*
X255571Y239991D01*
G01X262611Y255190D02*
X262841Y255345D01*
X263109Y255448D01*
X263416D01*
X263761Y255293D01*
X264029Y255035D01*
X264221Y254725D01*
X264374Y254208D01*
X264413Y253743D01*
X264336Y253278D01*
X264221Y252968D01*
X263991Y252658D01*
X263723Y252452D01*
X263454Y252348D01*
X263186D01*
X262918Y252452D01*
X262688Y252607D01*
X262496Y252813D01*
G01X261798Y252968D02*
X261568Y252607D01*
X261261Y252400D01*
X260916Y252348D01*
X260609Y252400D01*
X260303Y252658D01*
X260111Y252968D01*
X260073Y253278D01*
X260149Y253640D01*
X260418Y253898D01*
X260686Y254002D01*
X261031D01*
G01X260686D02*
X260456Y254157D01*
X260264Y254415D01*
X260188Y254725D01*
X260264Y255035D01*
X260456Y255293D01*
X260801Y255448D01*
X261146Y255397D01*
X261491Y255190D01*
G01X259183Y253640D02*
X258914Y254002D01*
X258684Y254208D01*
X258378Y254312D01*
X258109Y254208D01*
X257918Y254002D01*
X257764Y253692D01*
X257726Y253330D01*
X257764Y253020D01*
X257918Y252710D01*
X258148Y252452D01*
X258416Y252348D01*
X258723Y252452D01*
X258991Y252762D01*
X259144Y253227D01*
X259183Y253743D01*
X259106Y254415D01*
X258991Y254777D01*
X258799Y255138D01*
X258531Y255397D01*
X258263Y255448D01*
X257994Y255345D01*
X257803Y255087D01*
G01X264111Y280164D02*
Y277942D01*
X263958Y277477D01*
X263652Y277167D01*
X263268Y277064D01*
X262885Y277167D01*
X262578Y277477D01*
X262425Y277942D01*
Y280164D01*
G01X260768Y277064D02*
Y280164D01*
X261228Y279544D01*
G01Y277064D02*
X260308D01*
G01X258997Y279647D02*
X258766Y279957D01*
X258498Y280112D01*
X258192Y280164D01*
X257808Y280061D01*
X257540Y279802D01*
X257463Y279492D01*
X257502Y279182D01*
X257655Y278924D01*
X258422Y278407D01*
X258766Y278046D01*
X258997Y277529D01*
X259073Y277064D01*
X257463D01*
G01X274342Y211903D02*
X274572Y212059D01*
X274840Y212162D01*
X275147D01*
X275492Y212007D01*
X275760Y211749D01*
X275952Y211438D01*
X276105Y210922D01*
X276143Y210457D01*
X276067Y209992D01*
X275952Y209682D01*
X275722Y209372D01*
X275453Y209165D01*
X275185Y209062D01*
X274917D01*
X274648Y209165D01*
X274418Y209320D01*
X274227Y209527D01*
G01X273528Y209682D02*
X273298Y209320D01*
X272992Y209114D01*
X272647Y209062D01*
X272340Y209114D01*
X272033Y209372D01*
X271842Y209682D01*
X271803Y209992D01*
X271880Y210353D01*
X272148Y210612D01*
X272417Y210715D01*
X272762D01*
G01X272417D02*
X272187Y210870D01*
X271995Y211128D01*
X271918Y211438D01*
X271995Y211749D01*
X272187Y212007D01*
X272532Y212162D01*
X272877Y212110D01*
X273222Y211903D01*
G01X270913Y211645D02*
X270683Y211955D01*
X270415Y212110D01*
X270108Y212162D01*
X269725Y212059D01*
X269457Y211800D01*
X269380Y211490D01*
X269418Y211180D01*
X269572Y210922D01*
X270338Y210405D01*
X270683Y210043D01*
X270913Y209527D01*
X270990Y209062D01*
X269380D01*
G01X273616Y232660D02*
X273846Y232815D01*
X274115Y232918D01*
X274421D01*
X274766Y232763D01*
X275035Y232505D01*
X275226Y232195D01*
X275380Y231678D01*
X275418Y231213D01*
X275342Y230748D01*
X275226Y230438D01*
X274996Y230128D01*
X274728Y229922D01*
X274460Y229818D01*
X274192D01*
X273923Y229922D01*
X273693Y230076D01*
X273501Y230283D01*
G01X272803Y230438D02*
X272573Y230076D01*
X272266Y229870D01*
X271921Y229818D01*
X271615Y229870D01*
X271308Y230128D01*
X271116Y230438D01*
X271078Y230748D01*
X271155Y231110D01*
X271423Y231368D01*
X271692Y231472D01*
X272036D01*
G01X271692D02*
X271462Y231626D01*
X271270Y231885D01*
X271193Y232195D01*
X271270Y232505D01*
X271462Y232763D01*
X271806Y232918D01*
X272152Y232866D01*
X272496Y232660D01*
G01X269460Y229818D02*
Y232918D01*
X269920Y232298D01*
G01Y229818D02*
X269000D01*
G01X281623Y254386D02*
X281853Y254542D01*
X282121Y254645D01*
X282428D01*
X282773Y254490D01*
X283041Y254232D01*
X283233Y253921D01*
X283386Y253405D01*
X283425Y252940D01*
X283348Y252475D01*
X283233Y252165D01*
X283003Y251855D01*
X282735Y251648D01*
X282466Y251545D01*
X282198D01*
X281930Y251648D01*
X281700Y251803D01*
X281508Y252010D01*
G01X280810Y252165D02*
X280580Y251803D01*
X280273Y251596D01*
X279928Y251545D01*
X279621Y251596D01*
X279315Y251855D01*
X279123Y252165D01*
X279085Y252475D01*
X279161Y252836D01*
X279430Y253095D01*
X279698Y253198D01*
X280043D01*
G01X279698D02*
X279468Y253353D01*
X279276Y253611D01*
X279200Y253921D01*
X279276Y254232D01*
X279468Y254490D01*
X279813Y254645D01*
X280158Y254593D01*
X280503Y254386D01*
G01X278310Y252010D02*
X278080Y251751D01*
X277811Y251596D01*
X277466Y251545D01*
X277121Y251648D01*
X276853Y251855D01*
X276661Y252216D01*
X276623Y252630D01*
X276700Y253043D01*
X276891Y253301D01*
X277160Y253508D01*
X277428Y253560D01*
X277696Y253508D01*
X278041Y253301D01*
X277926Y254645D01*
X276891D01*
G01X289348Y208944D02*
Y212044D01*
X288390D01*
X288083Y211889D01*
X287892Y211682D01*
X287815Y211269D01*
X287892Y210856D01*
X288122Y210598D01*
X288390Y210443D01*
X289348D01*
G01X288390D02*
X287815Y208944D01*
G01X286082D02*
Y212044D01*
X286542Y211424D01*
G01Y208944D02*
X285622D01*
G01X283658D02*
X283582Y209616D01*
X283467Y210184D01*
X283313Y210701D01*
X283122Y211269D01*
X282815Y212044D01*
X284348D01*
G01X305546Y231419D02*
Y229197D01*
X305393Y228732D01*
X305086Y228422D01*
X304703Y228319D01*
X304319Y228422D01*
X304013Y228732D01*
X303859Y229197D01*
Y231419D01*
G01X302203Y228319D02*
Y231419D01*
X302663Y230799D01*
G01Y228319D02*
X301743D01*
G01X299703D02*
Y231419D01*
X300163Y230799D01*
G01Y228319D02*
X299243D01*
G01X288120Y231543D02*
X288350Y231698D01*
X288619Y231801D01*
X288925D01*
X289270Y231646D01*
X289539Y231388D01*
X289730Y231078D01*
X289884Y230561D01*
X289922Y230096D01*
X289846Y229631D01*
X289730Y229321D01*
X289500Y229011D01*
X289232Y228804D01*
X288964Y228701D01*
X288696D01*
X288427Y228804D01*
X288197Y228959D01*
X288005Y229166D01*
G01X287307Y229321D02*
X287077Y228959D01*
X286770Y228753D01*
X286425Y228701D01*
X286119Y228753D01*
X285812Y229011D01*
X285620Y229321D01*
X285582Y229631D01*
X285659Y229993D01*
X285927Y230251D01*
X286196Y230354D01*
X286541D01*
G01X286196D02*
X285966Y230509D01*
X285774Y230768D01*
X285697Y231078D01*
X285774Y231388D01*
X285966Y231646D01*
X286310Y231801D01*
X286656Y231749D01*
X287001Y231543D01*
G01X284807Y229321D02*
X284577Y228959D01*
X284270Y228753D01*
X283925Y228701D01*
X283619Y228753D01*
X283312Y229011D01*
X283120Y229321D01*
X283082Y229631D01*
X283159Y229993D01*
X283427Y230251D01*
X283696Y230354D01*
X284040D01*
G01X283696D02*
X283466Y230509D01*
X283274Y230768D01*
X283197Y231078D01*
X283274Y231388D01*
X283466Y231646D01*
X283810Y231801D01*
X284156Y231749D01*
X284500Y231543D01*
G01X296744Y255072D02*
X296974Y255228D01*
X297243Y255331D01*
X297549D01*
X297895Y255176D01*
X298163Y254918D01*
X298355Y254607D01*
X298508Y254091D01*
X298546Y253626D01*
X298470Y253161D01*
X298355Y252851D01*
X298124Y252541D01*
X297856Y252334D01*
X297588Y252231D01*
X297320D01*
X297051Y252334D01*
X296821Y252489D01*
X296629Y252696D01*
G01X295931Y252851D02*
X295701Y252489D01*
X295394Y252282D01*
X295049Y252231D01*
X294743Y252282D01*
X294436Y252541D01*
X294244Y252851D01*
X294206Y253161D01*
X294283Y253522D01*
X294551Y253781D01*
X294820Y253884D01*
X295164D01*
G01X294820D02*
X294590Y254039D01*
X294398Y254297D01*
X294321Y254607D01*
X294398Y254918D01*
X294590Y255176D01*
X294934Y255331D01*
X295280Y255279D01*
X295624Y255072D01*
G01X292588Y252231D02*
X292320Y252282D01*
X292013Y252437D01*
X291821Y252696D01*
X291744Y253057D01*
X291821Y253419D01*
X292051Y253729D01*
X292396Y253884D01*
X292780D01*
X293009Y253988D01*
X293201Y254246D01*
X293278Y254607D01*
X293163Y254969D01*
X292894Y255228D01*
X292588Y255331D01*
X292281Y255228D01*
X292013Y254969D01*
X291898Y254607D01*
X291974Y254246D01*
X292166Y253988D01*
X292396Y253884D01*
X292780D01*
X293124Y253729D01*
X293354Y253419D01*
X293431Y253057D01*
X293354Y252696D01*
X293163Y252437D01*
X292856Y252282D01*
X292588Y252231D01*
G01X290730Y279230D02*
Y282330D01*
X289772D01*
X289465Y282175D01*
X289273Y281968D01*
X289197Y281555D01*
X289273Y281141D01*
X289503Y280883D01*
X289772Y280728D01*
X290730D01*
G01X289772D02*
X289197Y279230D01*
G01X288192Y281813D02*
X287962Y282123D01*
X287693Y282278D01*
X287387Y282330D01*
X287003Y282226D01*
X286735Y281968D01*
X286658Y281658D01*
X286697Y281348D01*
X286850Y281090D01*
X287617Y280573D01*
X287962Y280211D01*
X288192Y279695D01*
X288268Y279230D01*
X286658D01*
G01X284963Y282330D02*
X285270Y282226D01*
X285500Y281968D01*
X285653Y281658D01*
X285768Y281245D01*
X285807Y280780D01*
X285768Y280315D01*
X285653Y279901D01*
X285500Y279591D01*
X285270Y279333D01*
X284963Y279230D01*
X284657Y279333D01*
X284427Y279591D01*
X284273Y279901D01*
X284158Y280315D01*
X284120Y280780D01*
X284158Y281245D01*
X284273Y281658D01*
X284427Y281968D01*
X284657Y282226D01*
X284963Y282330D01*
G01X315609Y225418D02*
X315840Y225573D01*
X316108Y225676D01*
X316414D01*
X316760Y225521D01*
X317028Y225263D01*
X317220Y224953D01*
X317373Y224436D01*
X317411Y223971D01*
X317334Y223506D01*
X317220Y223196D01*
X316990Y222886D01*
X316721Y222679D01*
X316453Y222576D01*
X316184D01*
X315916Y222679D01*
X315686Y222834D01*
X315494Y223041D01*
G01X314796Y223196D02*
X314566Y222834D01*
X314260Y222628D01*
X313914Y222576D01*
X313608Y222628D01*
X313301Y222886D01*
X313110Y223196D01*
X313071Y223506D01*
X313148Y223868D01*
X313416Y224126D01*
X313684Y224229D01*
X314030D01*
G01X313684D02*
X313454Y224384D01*
X313263Y224643D01*
X313186Y224953D01*
X313263Y225263D01*
X313454Y225521D01*
X313800Y225676D01*
X314144Y225624D01*
X314490Y225418D01*
G01X311453Y225676D02*
X311759Y225573D01*
X311990Y225314D01*
X312143Y225004D01*
X312258Y224591D01*
X312296Y224126D01*
X312258Y223661D01*
X312143Y223248D01*
X311990Y222938D01*
X311759Y222679D01*
X311453Y222576D01*
X311146Y222679D01*
X310916Y222938D01*
X310763Y223248D01*
X310648Y223661D01*
X310610Y224126D01*
X310648Y224591D01*
X310763Y225004D01*
X310916Y225314D01*
X311146Y225573D01*
X311453Y225676D01*
G01X324430Y227162D02*
X324659Y227317D01*
X324928Y227420D01*
X325234D01*
X325580Y227265D01*
X325848Y227007D01*
X326040Y226697D01*
X326193Y226180D01*
X326231Y225715D01*
X326155Y225250D01*
X326040Y224940D01*
X325810Y224630D01*
X325541Y224424D01*
X325273Y224320D01*
X325004D01*
X324736Y224424D01*
X324506Y224579D01*
X324314Y224785D01*
G01X323501Y226904D02*
X323271Y227214D01*
X323003Y227369D01*
X322696Y227420D01*
X322313Y227317D01*
X322044Y227059D01*
X321968Y226749D01*
X322006Y226439D01*
X322160Y226180D01*
X322926Y225664D01*
X323271Y225302D01*
X323501Y224785D01*
X323578Y224320D01*
X321968D01*
G01X320924Y224682D02*
X320656Y224424D01*
X320350Y224320D01*
X320043Y224424D01*
X319774Y224734D01*
X319583Y225199D01*
X319506Y225664D01*
Y226232D01*
X319583Y226697D01*
X319774Y227110D01*
X320004Y227317D01*
X320273Y227420D01*
X320580Y227317D01*
X320809Y227110D01*
X320963Y226800D01*
X321040Y226387D01*
X320963Y226025D01*
X320771Y225664D01*
X320541Y225457D01*
X320273Y225405D01*
X319966Y225509D01*
X319736Y225767D01*
X319506Y226232D01*
G01X324380Y252201D02*
X324610Y252356D01*
X324879Y252459D01*
X325185D01*
X325530Y252304D01*
X325799Y252046D01*
X325990Y251736D01*
X326144Y251219D01*
X326182Y250754D01*
X326106Y250289D01*
X325990Y249979D01*
X325761Y249669D01*
X325492Y249463D01*
X325224Y249359D01*
X324956D01*
X324687Y249463D01*
X324457Y249618D01*
X324265Y249824D01*
G01X323452Y251943D02*
X323222Y252253D01*
X322954Y252408D01*
X322647Y252459D01*
X322264Y252356D01*
X321995Y252098D01*
X321919Y251788D01*
X321957Y251478D01*
X322110Y251219D01*
X322877Y250703D01*
X323222Y250341D01*
X323452Y249824D01*
X323529Y249359D01*
X321919D01*
G01X320952Y250651D02*
X320684Y251013D01*
X320454Y251219D01*
X320147Y251323D01*
X319879Y251219D01*
X319687Y251013D01*
X319534Y250703D01*
X319495Y250341D01*
X319534Y250031D01*
X319687Y249721D01*
X319917Y249463D01*
X320185Y249359D01*
X320492Y249463D01*
X320760Y249773D01*
X320914Y250238D01*
X320952Y250754D01*
X320876Y251426D01*
X320760Y251788D01*
X320569Y252149D01*
X320300Y252408D01*
X320032Y252459D01*
X319764Y252356D01*
X319572Y252098D01*
G01X314316Y252515D02*
X314546Y252670D01*
X314814Y252773D01*
X315121D01*
X315466Y252618D01*
X315734Y252360D01*
X315926Y252050D01*
X316079Y251533D01*
X316118Y251068D01*
X316041Y250603D01*
X315926Y250293D01*
X315696Y249983D01*
X315428Y249776D01*
X315159Y249673D01*
X314891D01*
X314622Y249776D01*
X314393Y249931D01*
X314201Y250138D01*
G01X313388Y252256D02*
X313158Y252566D01*
X312889Y252721D01*
X312582Y252773D01*
X312199Y252670D01*
X311931Y252411D01*
X311854Y252101D01*
X311893Y251791D01*
X312046Y251533D01*
X312812Y251016D01*
X313158Y250655D01*
X313388Y250138D01*
X313464Y249673D01*
X311854D01*
G01X311002Y250138D02*
X310773Y249880D01*
X310504Y249725D01*
X310159Y249673D01*
X309814Y249776D01*
X309546Y249983D01*
X309354Y250345D01*
X309316Y250758D01*
X309392Y251171D01*
X309584Y251430D01*
X309853Y251636D01*
X310121Y251688D01*
X310389Y251636D01*
X310734Y251430D01*
X310619Y252773D01*
X309584D01*
G01X319226Y290803D02*
X319456Y290958D01*
X319724Y291062D01*
X320031D01*
X320376Y290906D01*
X320644Y290648D01*
X320836Y290338D01*
X320989Y289822D01*
X321027Y289357D01*
X320951Y288892D01*
X320836Y288582D01*
X320606Y288272D01*
X320337Y288065D01*
X320069Y287962D01*
X319801D01*
X319532Y288065D01*
X319302Y288220D01*
X319111Y288426D01*
G01X318297Y290545D02*
X318067Y290855D01*
X317799Y291010D01*
X317492Y291062D01*
X317109Y290958D01*
X316841Y290700D01*
X316764Y290390D01*
X316802Y290080D01*
X316956Y289822D01*
X317722Y289305D01*
X318067Y288943D01*
X318297Y288426D01*
X318374Y287962D01*
X316764D01*
G01X314609D02*
Y291062D01*
X316027Y288840D01*
X314111D01*
G01X328291Y291117D02*
X328521Y291272D01*
X328789Y291375D01*
X329096D01*
X329441Y291220D01*
X329709Y290962D01*
X329901Y290652D01*
X330054Y290135D01*
X330092Y289670D01*
X330016Y289205D01*
X329901Y288895D01*
X329671Y288585D01*
X329402Y288378D01*
X329134Y288275D01*
X328866D01*
X328597Y288378D01*
X328367Y288534D01*
X328176Y288740D01*
G01X327362Y290858D02*
X327132Y291168D01*
X326864Y291324D01*
X326557Y291375D01*
X326174Y291272D01*
X325906Y291014D01*
X325829Y290704D01*
X325867Y290394D01*
X326021Y290135D01*
X326787Y289618D01*
X327132Y289257D01*
X327362Y288740D01*
X327439Y288275D01*
X325829D01*
G01X324977Y288895D02*
X324747Y288534D01*
X324441Y288327D01*
X324096Y288275D01*
X323789Y288327D01*
X323482Y288585D01*
X323291Y288895D01*
X323252Y289205D01*
X323329Y289567D01*
X323597Y289825D01*
X323866Y289929D01*
X324211D01*
G01X323866D02*
X323636Y290084D01*
X323444Y290342D01*
X323367Y290652D01*
X323444Y290962D01*
X323636Y291220D01*
X323981Y291375D01*
X324326Y291324D01*
X324671Y291117D01*
G01X347980Y241924D02*
Y239703D01*
X347827Y239238D01*
X347520Y238928D01*
X347137Y238824D01*
X346753Y238928D01*
X346447Y239238D01*
X346293Y239703D01*
Y241924D01*
G01X344637Y238824D02*
Y241924D01*
X345097Y241304D01*
G01Y238824D02*
X344177D01*
G01X342137Y241924D02*
X342443Y241821D01*
X342673Y241563D01*
X342827Y241253D01*
X342942Y240839D01*
X342980Y240374D01*
X342942Y239909D01*
X342827Y239496D01*
X342673Y239186D01*
X342443Y238928D01*
X342137Y238824D01*
X341830Y238928D01*
X341600Y239186D01*
X341447Y239496D01*
X341332Y239909D01*
X341293Y240374D01*
X341332Y240839D01*
X341447Y241253D01*
X341600Y241563D01*
X341830Y241821D01*
X342137Y241924D01*
G01X342099Y273732D02*
X342329Y273887D01*
X342597Y273990D01*
X342904D01*
X343249Y273835D01*
X343517Y273577D01*
X343709Y273267D01*
X343862Y272750D01*
X343901Y272285D01*
X343824Y271820D01*
X343709Y271510D01*
X343479Y271200D01*
X343210Y270993D01*
X342942Y270890D01*
X342674D01*
X342406Y270993D01*
X342176Y271148D01*
X341984Y271355D01*
G01X341171Y273473D02*
X340941Y273783D01*
X340672Y273938D01*
X340366Y273990D01*
X339982Y273887D01*
X339714Y273628D01*
X339637Y273318D01*
X339676Y273008D01*
X339829Y272750D01*
X340596Y272233D01*
X340941Y271872D01*
X341171Y271355D01*
X341247Y270890D01*
X339637D01*
G01X338671Y273473D02*
X338440Y273783D01*
X338172Y273938D01*
X337866Y273990D01*
X337482Y273887D01*
X337214Y273628D01*
X337137Y273318D01*
X337176Y273008D01*
X337329Y272750D01*
X338096Y272233D01*
X338440Y271872D01*
X338671Y271355D01*
X338747Y270890D01*
X337137D01*
G01X368833Y237511D02*
X369063Y237666D01*
X369332Y237769D01*
X369638D01*
X369983Y237614D01*
X370252Y237356D01*
X370443Y237046D01*
X370597Y236529D01*
X370635Y236064D01*
X370558Y235599D01*
X370443Y235289D01*
X370213Y234979D01*
X369945Y234772D01*
X369677Y234669D01*
X369408D01*
X369140Y234772D01*
X368910Y234928D01*
X368718Y235134D01*
G01X367905Y237252D02*
X367675Y237562D01*
X367407Y237718D01*
X367100Y237769D01*
X366717Y237666D01*
X366448Y237408D01*
X366372Y237098D01*
X366410Y236788D01*
X366563Y236529D01*
X367330Y236012D01*
X367675Y235651D01*
X367905Y235134D01*
X367982Y234669D01*
X366372D01*
G01X364677D02*
X364408Y234721D01*
X364102Y234876D01*
X363910Y235134D01*
X363833Y235496D01*
X363910Y235858D01*
X364140Y236168D01*
X364485Y236323D01*
X364868D01*
X365098Y236426D01*
X365290Y236684D01*
X365367Y237046D01*
X365252Y237408D01*
X364983Y237666D01*
X364677Y237769D01*
X364370Y237666D01*
X364102Y237408D01*
X363987Y237046D01*
X364063Y236684D01*
X364255Y236426D01*
X364485Y236323D01*
X364868D01*
X365213Y236168D01*
X365443Y235858D01*
X365520Y235496D01*
X365443Y235134D01*
X365252Y234876D01*
X364945Y234721D01*
X364677Y234669D01*
G01X362018Y289931D02*
Y293031D01*
X361251D01*
X360945Y292876D01*
X360715Y292670D01*
X360523Y292360D01*
X360370Y291998D01*
X360331Y291481D01*
X360370Y290965D01*
X360523Y290603D01*
X360715Y290293D01*
X360945Y290086D01*
X361251Y289931D01*
X362018D01*
G01X358215D02*
Y293031D01*
X359633Y290810D01*
X357716D01*
G01X378143Y238942D02*
X378373Y239097D01*
X378642Y239200D01*
X378948D01*
X379293Y239045D01*
X379562Y238787D01*
X379753Y238477D01*
X379907Y237960D01*
X379945Y237495D01*
X379868Y237030D01*
X379753Y236720D01*
X379523Y236410D01*
X379255Y236203D01*
X378987Y236100D01*
X378718D01*
X378450Y236203D01*
X378220Y236358D01*
X378028Y236565D01*
G01X377215Y238683D02*
X376985Y238993D01*
X376717Y239148D01*
X376410Y239200D01*
X376027Y239097D01*
X375758Y238838D01*
X375682Y238528D01*
X375720Y238218D01*
X375873Y237960D01*
X376640Y237443D01*
X376985Y237082D01*
X377215Y236565D01*
X377292Y236100D01*
X375682D01*
G01X374063D02*
X373987Y236772D01*
X373872Y237340D01*
X373718Y237857D01*
X373527Y238425D01*
X373220Y239200D01*
X374753D01*
G54D11*
G01X100604Y154150D02*
Y158480D01*
X92730D01*
Y153756D01*
X100604D01*
Y154150D01*
G01X148061Y91354D02*
Y87024D01*
X155935D01*
Y91748D01*
X148061D01*
Y91354D01*
G01Y81476D02*
Y77145D01*
X155935D01*
Y81870D01*
X148061D01*
Y81476D01*
G01Y101233D02*
Y96902D01*
X155935D01*
Y101626D01*
X148061D01*
Y101233D01*
G01X169185Y71159D02*
Y75490D01*
X161311D01*
Y70765D01*
X169185D01*
Y71159D01*
G01Y64877D02*
Y69208D01*
X161311D01*
Y64484D01*
X169185D01*
Y64877D01*
G01X161311Y87660D02*
Y83329D01*
X169185D01*
Y88053D01*
X161311D01*
Y87660D01*
G01Y93941D02*
Y89611D01*
X169185D01*
Y94335D01*
X161311D01*
Y93941D01*
G01X161310Y81378D02*
Y77047D01*
X169185D01*
Y81772D01*
X161310D01*
Y81378D01*
G01X232214Y271204D02*
Y266873D01*
X240088D01*
Y271598D01*
X232214D01*
Y271204D01*
G01X239823Y273980D02*
Y278311D01*
X231949D01*
Y273586D01*
X239823D01*
Y273980D01*
G01X219944Y277917D02*
Y273586D01*
X227818D01*
Y278310D01*
X219944D01*
Y277917D01*
G01X220277Y271204D02*
Y266873D01*
X228151D01*
Y271598D01*
X220277D01*
Y271204D01*
G01X254117Y217265D02*
Y212934D01*
X261991D01*
Y217658D01*
X254117D01*
Y217265D01*
G01X255255Y236828D02*
X262735D01*
Y222655D01*
X254861D01*
Y236828D01*
X255255D01*
G01X257017Y251290D02*
Y246960D01*
X264891D01*
Y251684D01*
X257017D01*
Y251290D01*
G01X268895Y217265D02*
Y212934D01*
X276769D01*
Y217658D01*
X268895D01*
Y217265D01*
G01X267373Y228804D02*
X277215D01*
Y222505D01*
X266979D01*
Y228804D01*
X267373D01*
G01X276866Y255946D02*
Y265788D01*
X283165D01*
Y255552D01*
X276866D01*
Y255946D01*
G01X282497Y217265D02*
Y212934D01*
X290371D01*
Y217658D01*
X282497D01*
Y217265D01*
G01X290372Y223530D02*
Y227860D01*
X282498D01*
Y223136D01*
X290372D01*
Y223530D01*
G01X285603Y270600D02*
X289934D01*
Y278474D01*
X285209D01*
Y270600D01*
X285603D01*
G01X311602Y213750D02*
X315933D01*
Y221624D01*
X311208D01*
Y213750D01*
X311602D01*
G01X319594Y213678D02*
Y223521D01*
X325893D01*
Y213285D01*
X319594D01*
Y213678D01*
G01X315740Y248519D02*
Y238676D01*
X309441D01*
Y248913D01*
X315740D01*
Y248519D01*
G01X324692Y248388D02*
X320362D01*
Y240514D01*
X325086D01*
Y248388D01*
X324692D01*
G01X315375Y278695D02*
X319706D01*
Y286569D01*
X314982D01*
Y278695D01*
X315375D01*
G01X323073Y277222D02*
Y287064D01*
X329372D01*
Y276828D01*
X323073D01*
Y277222D01*
G01X369777Y248460D02*
Y238618D01*
X363478D01*
Y248854D01*
X369777D01*
Y248460D01*
G01X378406Y248173D02*
X374075D01*
Y240299D01*
X378800D01*
Y248173D01*
X378406D01*
G54D12*
G01X105019Y163611D02*
G03I-492J0D01*
G01X122747Y156780D02*
G03I-492J0D01*
G01X248603Y255851D02*
G03I-492J0D01*
G01X295639Y270658D02*
G03I-492J0D01*
G01X341836Y291984D02*
G03I-492J0D01*
G01X357943Y250466D02*
G03I-492J0D01*
G54D13*
G01X144062Y35284D02*
X70401D01*
Y144142D01*
X84968D01*
Y135481D01*
X129456D01*
Y144142D01*
X144023D01*
X144062Y144103D01*
Y35284D01*
G01X91929Y167942D02*
X103346D01*
Y170304D01*
X91929D01*
Y167942D01*
G01X109657Y161111D02*
X121074D01*
Y163473D01*
X109657D01*
Y161111D01*
G01X241269Y262350D02*
X239301Y264318D01*
X217253D01*
Y254082D01*
X239301D01*
X241269Y256051D01*
Y262350D01*
G01X230197Y250165D02*
X224292D01*
Y222606D01*
X230197D01*
G01X231033Y259200D02*
X228671Y261562D01*
Y256838D01*
X231033Y259200D01*
G01Y261562D02*
Y256838D01*
G01X233789Y259200D02*
X224734D01*
G01X245945Y250165D02*
X251851D01*
Y222606D01*
X245945D01*
G01X256182Y257032D02*
X265237D01*
G01X256182Y276323D02*
X265237D01*
G01X296798Y220275D02*
X308215D01*
G01X288847Y266327D02*
Y242705D01*
G01X301446Y266327D02*
Y242705D01*
G01X351151Y229994D02*
Y249285D01*
X338553D01*
Y229994D01*
X351151D01*
G01X335045Y287653D02*
X332682D01*
Y258913D01*
X335045D01*
G01X347643Y287653D02*
X350005D01*
Y258913D01*
X347643D01*
G01X366982Y277006D02*
X352730D01*
G54D14*
G01X19685Y35000D02*
X374015D01*
G03X393700Y54685I0J19685D01*
G01Y295315D01*
G03X374015Y315000I-19685J0D01*
G01X19685D01*
G03X0Y295315I0J-19685D01*
G01Y54685D01*
G03X19685Y35000I19685J0D01*
G54D15*
G01X348199Y245348D02*
G03I-984J0D01*
M02*
