G04 ================== begin FILE IDENTIFICATION RECORD ==================*
G04 Layout Name:  F:/计量采集模块部分/Ven1.0/Pcb/DataCollection.brd*
G04 Film Name:    SOLDERMASK_BOTTOM*
G04 File Format:  Gerber RS274X*
G04 File Origin:  Cadence Allegro 16.6-2015-S066*
G04 Origin Date:  Tue Apr 11 15:49:38 2017*
G04 *
G04 Layer:  BOARD GEOMETRY/OUTLINE*
G04 Layer:  BOARD GEOMETRY/SOLDERMASK_BOTTOM*
G04 Layer:  PACKAGE GEOMETRY/SOLDERMASK_BOTTOM*
G04 Layer:  PIN/SOLDERMASK_BOTTOM*
G04 *
G04 Offset:    (0.000 0.000)*
G04 Mirror:    No*
G04 Mode:      Positive*
G04 Rotation:  0*
G04 FullContactRelief:  No*
G04 UndefLineWidth:     6.000*
G04 ================== end FILE IDENTIFICATION RECORD ====================*
%FSLAX25Y25*MOIN*%
%IR0*IPPOS*OFA0.00000B0.00000*MIA0B0*SFA1.00000B1.00000*%
%ADD19R,.062992X.062992*%
%ADD21R,.068898X.026575*%
%ADD31R,.100394X.074803*%
%ADD11C,.177165*%
%ADD10R,.228346X.228346*%
%ADD13R,.03937X.129921*%
%ADD20R,.127953X.07874*%
%ADD29R,.061024X.023622*%
%ADD26O,.023622X.044291*%
%ADD28R,.037402X.016732*%
%ADD16R,.023622X.041339*%
%ADD15R,.016732X.037402*%
%ADD22R,.100394X.135827*%
%ADD14C,.059055*%
%ADD27R,.090551X.090551*%
%ADD25R,.055118X.022638*%
%ADD17C,.070866*%
%ADD24R,.022638X.055118*%
%ADD18C,.062992*%
%ADD12C,.098425*%
%ADD23R,.076772X.023622*%
%ADD30R,.098425X.090551*%
%ADD32C,.006*%
G75*
%LPD*%
G75*
G54D10*
X12411Y61024D03*
Y156300D03*
G54D20*
X238071Y224181D03*
Y248591D03*
G54D11*
X19685Y295276D03*
X374016Y54685D03*
G54D30*
X341344Y261078D03*
Y285488D03*
G54D12*
X16687Y185118D03*
Y205118D03*
X16188Y250572D03*
Y270572D03*
G54D21*
X258798Y224131D03*
Y235352D03*
G54D22*
X260709Y266678D03*
G54D13*
X69279Y49064D03*
X94495Y144143D03*
X99495D03*
X104495D03*
X109495D03*
X114495D03*
X119495D03*
X145184Y49064D03*
G54D31*
X359856Y268522D03*
Y285491D03*
G54D32*
G01X19685Y35000D02*
X374015D01*
G03X393700Y54685I0J19685D01*
G01Y295315D01*
G03X374015Y315000I-19685J0D01*
G01X19685D01*
G03X0Y295315I0J-19685D01*
G01Y54685D01*
G03X19685Y35000I19685J0D01*
G54D23*
X250867Y259178D03*
Y274178D03*
Y269178D03*
Y264178D03*
X270552Y259178D03*
Y264178D03*
Y269178D03*
Y274178D03*
G54D14*
X60957Y233432D03*
Y263432D03*
Y293432D03*
X171193Y233432D03*
Y263432D03*
X277781Y183181D03*
X297781D03*
X287781D03*
X317781D03*
X307781D03*
X346256Y42991D03*
X336256D03*
X346256Y52991D03*
X336256D03*
X327781Y183181D03*
G54D24*
X275542Y225655D03*
X268652D03*
G54D15*
X93911Y156118D03*
X99423D03*
X154754Y89386D03*
X149242D03*
X154754Y79507D03*
X149242D03*
X154754Y99264D03*
X149242D03*
X162492Y73128D03*
X168004D03*
X162492Y66846D03*
X168004D03*
X168004Y85691D03*
X162492D03*
X168004Y91973D03*
X162492D03*
X168003Y79409D03*
X162492D03*
X238906Y269235D03*
X233395D03*
X233130Y275948D03*
X238642D03*
X226637Y275948D03*
X221125D03*
X226970Y269235D03*
X221458D03*
X260810Y215296D03*
X255298D03*
X258198Y249322D03*
X275588Y215296D03*
X270076D03*
X263710Y249322D03*
X289190Y215296D03*
X283678D03*
X283679Y225498D03*
X289190D03*
G54D25*
X280016Y257225D03*
Y264115D03*
X322744Y214958D03*
Y221848D03*
X312591Y240350D03*
Y247240D03*
X326222Y278501D03*
Y285391D03*
X366628Y240291D03*
Y247181D03*
G54D16*
X93897Y164595D03*
X111625Y157765D03*
X97637Y173650D03*
X101378Y164595D03*
X115366Y166820D03*
X119106Y157765D03*
G54D17*
X194751Y217376D03*
Y297376D03*
X374751Y257376D03*
Y297376D03*
G54D26*
X298766Y215009D03*
X302506D03*
X298766Y225540D03*
X306247Y215009D03*
Y225540D03*
G54D18*
X201584Y59450D03*
Y157875D03*
G54D27*
X295147Y244870D03*
Y264162D03*
G54D28*
X287571Y277293D03*
Y271781D03*
X313571Y214932D03*
Y220443D03*
X322724Y241695D03*
Y247207D03*
X317344Y279876D03*
Y285388D03*
X376438Y241480D03*
Y246992D03*
G54D19*
X220403Y259200D03*
X238120D03*
G54D29*
X334222Y237139D03*
Y232139D03*
Y247139D03*
Y242139D03*
X355482Y232139D03*
Y237139D03*
Y242139D03*
Y247139D03*
M02*
